<svg width="468" height="347" viewBox="0 0 468 347" fill="none" xmlns="http://www.w3.org/2000/svg">
<path d="M468 303.632H0V303.872H468V303.632Z" fill="#E6E6E6"/>
<path d="M106.573 311.302H74.3745V311.543H106.573V311.302Z" fill="#E6E6E6"/>
<path d="M122.363 311.302H112.741V311.543H122.363V311.302Z" fill="#E6E6E6"/>
<path d="M169.837 306.606H151.716V306.846H169.837V306.606Z" fill="#E6E6E6"/>
<path d="M403.051 316.611H362.625V316.851H403.051V316.611Z" fill="#E6E6E6"/>
<path d="M417.316 316.611H411.391V316.851H417.316V316.611Z" fill="#E6E6E6"/>
<path d="M372.856 308.213H285.171V308.453H372.856V308.213Z" fill="#E6E6E6"/>
<path d="M392.203 173.272H326.617V303.631H392.203V173.272Z" fill="#F5F5F5"/>
<path d="M392.203 173.272H386.793V303.631H392.203V173.272Z" fill="#F0F0F0"/>
<path d="M180.667 205.152L331.672 205.152V176.993L180.667 176.993V205.152Z" fill="#E0E0E0"/>
<path d="M243.632 303.727H178.888C178.64 303.727 178.402 303.626 178.226 303.447C178.051 303.268 177.952 303.024 177.952 302.771C177.952 302.517 178.051 302.274 178.226 302.094C178.402 301.915 178.64 301.814 178.888 301.814H243.632C252.992 301.814 254.236 299.021 254.236 287.945V148.298C254.236 148.044 254.335 147.801 254.511 147.622C254.686 147.442 254.924 147.342 255.172 147.342C255.421 147.342 255.659 147.442 255.834 147.622C256.01 147.801 256.108 148.044 256.108 148.298V287.945C256.108 299.786 254.311 303.727 243.632 303.727Z" fill="#E0E0E0"/>
<path d="M186.47 183.554L390.724 183.554V173.779L186.47 173.779V183.554Z" fill="#F0F0F0"/>
<path d="M187.949 173.272H122.363V303.631H187.949V173.272Z" fill="#F5F5F5"/>
<path d="M187.939 173.272H182.529V303.631H187.939V173.272Z" fill="#F0F0F0"/>
<path d="M141.504 303.631V71.4921H85.2228L85.2228 303.631H141.504Z" fill="#FAFAFA"/>
<path d="M138.416 129.474V78.2737H88.3116V129.474H138.416Z" fill="#F5F5F5"/>
<path d="M102.267 77.585H124.488C124.488 78.9929 123.941 80.3431 122.966 81.3386C121.992 82.3342 120.671 82.8934 119.293 82.8934H107.5C106.814 82.8985 106.135 82.7649 105.5 82.5004C104.866 82.2359 104.288 81.8457 103.802 81.3522C103.316 80.8588 102.93 80.2719 102.666 79.6253C102.403 78.9787 102.267 78.2853 102.267 77.585Z" fill="#E0E0E0"/>
<path d="M138.406 185.266V134.065H88.3022V185.266H138.406Z" fill="#F5F5F5"/>
<path d="M138.416 241.058V189.857H88.3116V241.058H138.416Z" fill="#F5F5F5"/>
<path d="M138.416 296.86V245.659H88.3116V296.86H138.416Z" fill="#F5F5F5"/>
<path d="M102.267 133.386H124.488C124.486 134.794 123.937 136.142 122.964 137.137C121.99 138.132 120.67 138.692 119.293 138.695H107.5C106.815 138.699 106.136 138.564 105.502 138.299C104.868 138.034 104.291 137.644 103.805 137.151C103.319 136.658 102.933 136.071 102.669 135.425C102.405 134.779 102.269 134.086 102.267 133.386Z" fill="#E0E0E0"/>
<path d="M102.267 189.178H124.488C124.488 190.586 123.941 191.936 122.966 192.932C121.992 193.927 120.671 194.487 119.293 194.487H107.5C106.814 194.492 106.135 194.358 105.5 194.094C104.866 193.829 104.288 193.439 103.802 192.946C103.316 192.452 102.93 191.865 102.666 191.219C102.403 190.572 102.267 189.879 102.267 189.178Z" fill="#E0E0E0"/>
<path d="M102.267 244.97H124.488C124.488 246.378 123.941 247.728 122.966 248.724C121.992 249.719 120.671 250.279 119.293 250.279H107.5C106.814 250.284 106.135 250.15 105.5 249.886C104.866 249.621 104.288 249.231 103.802 248.737C103.316 248.244 102.93 247.657 102.666 247.011C102.403 246.364 102.267 245.671 102.267 244.97Z" fill="#E0E0E0"/>
<path d="M85.2228 303.631L85.2228 71.4921H57.1147L57.1147 303.631H85.2228Z" fill="#F0F0F0"/>
<path d="M247.469 173.272H233.326L236.761 145.132H250.913L247.469 173.272Z" fill="#F0F0F0"/>
<path d="M250.605 173.272H236.452L239.897 145.132H254.04L250.605 173.272Z" fill="#F5F5F5"/>
<path d="M280.95 173.272H270.719L268.763 170.087H278.984L280.95 173.272Z" fill="#F0F0F0"/>
<path d="M335.762 173.272H273.846L271.889 170.087H327.413L335.762 173.272Z" fill="#FAFAFA"/>
<path d="M202.607 165.199H207.081C209.176 165.199 211.185 166.05 212.667 167.564C214.148 169.078 214.98 171.131 214.98 173.272H194.688C194.688 172.21 194.893 171.159 195.291 170.178C195.689 169.197 196.273 168.307 197.008 167.557C197.744 166.807 198.617 166.213 199.578 165.808C200.538 165.404 201.568 165.197 202.607 165.199Z" fill="#F0F0F0"/>
<path d="M252.318 159.202H238.175L239.897 145.132H254.04L252.318 159.202Z" fill="#F0F0F0"/>
<path d="M200.304 155.835H300.456C300.653 155.836 300.848 155.793 301.028 155.71C301.207 155.627 301.368 155.506 301.498 155.355C301.628 155.204 301.725 155.026 301.783 154.833C301.841 154.641 301.857 154.438 301.832 154.238L294.119 91.1862C294.078 90.843 293.915 90.527 293.662 90.298C293.408 90.0689 293.082 89.9425 292.743 89.9428H192.619C192.423 89.9426 192.229 89.9851 192.05 90.0674C191.871 90.1496 191.712 90.2698 191.581 90.4199C191.451 90.57 191.354 90.7466 191.296 90.9381C191.237 91.1296 191.22 91.3315 191.244 91.5305L198.956 154.592C198.997 154.93 199.155 155.242 199.403 155.471C199.651 155.699 199.971 155.829 200.304 155.835Z" fill="#F0F0F0"/>
<path d="M201.82 155.835H301.907C302.104 155.836 302.299 155.793 302.479 155.71C302.658 155.627 302.819 155.506 302.949 155.355C303.079 155.204 303.176 155.026 303.234 154.833C303.291 154.641 303.308 154.438 303.283 154.238L295.57 91.1862C295.527 90.8438 295.364 90.529 295.111 90.3003C294.858 90.0716 294.532 89.9446 294.194 89.9428H194.108C193.911 89.9426 193.717 89.9851 193.539 90.0674C193.36 90.1496 193.2 90.2698 193.07 90.4199C192.94 90.57 192.842 90.7466 192.784 90.9381C192.726 91.1296 192.708 91.3315 192.732 91.5305L200.444 154.592C200.486 154.935 200.648 155.251 200.902 155.48C201.155 155.709 201.482 155.835 201.82 155.835Z" fill="#F5F5F5"/>
<path d="M300.054 152.344L292.837 93.3287C292.823 93.2324 292.776 93.1444 292.704 93.081C292.631 93.0177 292.539 92.9834 292.444 92.9844H196.345C196.29 92.9823 196.235 92.9927 196.184 93.0148C196.134 93.0369 196.088 93.0701 196.052 93.1121C196.015 93.1542 195.988 93.2039 195.972 93.2579C195.956 93.3119 195.953 93.3687 195.961 93.4243L203.178 152.449C203.189 152.545 203.234 152.633 203.305 152.696C203.376 152.76 203.467 152.794 203.561 152.794H299.67C299.725 152.793 299.779 152.78 299.829 152.756C299.879 152.732 299.923 152.698 299.96 152.656C299.996 152.614 300.023 152.564 300.039 152.51C300.055 152.456 300.06 152.4 300.054 152.344Z" fill="#E0E0E0"/>
<path d="M263.475 173.272H240.43V172.975C240.43 172.354 240.672 171.758 241.102 171.318C241.532 170.879 242.115 170.632 242.723 170.632H261.181C261.79 170.632 262.373 170.879 262.803 171.318C263.233 171.758 263.475 172.354 263.475 172.975V173.272Z" fill="#FAFAFA"/>
<path d="M243.117 173.272H227.485V172.975C227.485 172.354 227.727 171.758 228.157 171.318C228.587 170.879 229.17 170.632 229.779 170.632H240.824C241.432 170.632 242.015 170.879 242.445 171.318C242.875 171.758 243.117 172.354 243.117 172.975V173.272Z" fill="#F0F0F0"/>
<path d="M109.007 45.2748V45.227C109.222 44.4905 109.428 43.7445 109.606 42.9984C109.922 43.5141 110.354 43.9464 110.864 44.2605C111.375 44.5745 111.95 44.7614 112.545 44.8062H112.797C114.36 44.6531 115.858 43.1036 116.803 40.6646C116.822 40.6207 116.831 40.5736 116.831 40.5259C116.831 40.4782 116.822 40.4311 116.803 40.3872C116.758 40.2999 116.681 40.2345 116.588 40.2055C115.466 39.9149 114.297 39.8695 113.157 40.0722C112.016 40.2749 110.931 40.7212 109.971 41.3819C110.111 40.6741 110.233 39.9568 110.336 39.249C110.582 39.2976 110.833 39.3232 111.084 39.3255C113.63 39.3255 115.502 37.0012 115.596 36.8865C115.629 36.8443 115.652 36.7948 115.663 36.742C115.673 36.6892 115.672 36.6345 115.658 36.5824C115.645 36.5303 115.619 36.4821 115.584 36.4419C115.549 36.4017 115.505 36.3705 115.456 36.3508C114.864 36.0508 114.217 35.882 113.557 35.8557C112.898 35.8293 112.24 35.9459 111.627 36.1978C110.973 36.5376 110.445 37.0846 110.12 37.7569C109.643 36.2601 108.771 34.927 107.601 33.9043C106.43 32.8815 105.005 32.2089 103.484 31.9606C103.437 31.9491 103.388 31.9493 103.341 31.9609C103.293 31.9725 103.25 31.9954 103.213 32.0275C103.173 32.0557 103.141 32.0929 103.118 32.136C103.096 32.1792 103.083 32.2272 103.082 32.2762C102.951 34.6387 103.026 37.5369 104.757 38.9142C105.481 39.46 106.366 39.7367 107.266 39.6985C108.071 39.6787 108.871 39.55 109.643 39.3159C109.396 41.0253 109.036 42.7157 108.567 44.3757C106.873 42.0172 104.47 40.2904 101.724 39.4594C101.638 39.4388 101.546 39.4531 101.47 39.4994C101.393 39.5457 101.337 39.6205 101.313 39.7081C100.788 41.7454 101.06 43.4001 102.09 44.4905C102.613 44.9712 103.226 45.3392 103.892 45.5725C104.558 45.8059 105.262 45.8998 105.965 45.8487C106.719 45.8438 107.472 45.7638 108.211 45.6096C107.78 47.0061 107.275 48.3739 106.798 49.6747C105.759 48.7182 102.698 46.3461 99.3657 47.3409C99.2763 47.3711 99.2022 47.4365 99.1598 47.5226C99.1415 47.5664 99.1321 47.6136 99.1321 47.6613C99.1321 47.7089 99.1415 47.7561 99.1598 47.8C100.096 50.0573 101.097 51.3103 102.389 51.7407C102.733 51.8567 103.094 51.9148 103.456 51.9129C104.445 51.8699 105.409 51.581 106.264 51.0712C105.553 52.8024 104.795 54.4189 104.074 55.8536C103.218 54.9621 102.144 54.3228 100.963 54.003C99.7815 53.6832 98.5379 53.6947 97.3627 54.0363C97.2825 54.0525 97.2112 54.0988 97.1627 54.166C97.1142 54.2333 97.0921 54.3167 97.1006 54.3997C97.1835 55.1231 97.4511 55.8115 97.8766 56.3957C98.3021 56.98 98.8706 57.4396 99.5249 57.7283C100.019 57.9452 100.551 58.056 101.088 58.0535C101.833 58.044 102.566 57.8503 103.222 57.4892C102.492 58.8761 101.818 60.0334 101.294 60.9134H94.9291C93.9182 59.1439 92.7482 56.944 91.6063 54.4762C92.1382 54.6385 92.6893 54.7254 93.2443 54.7345C93.9269 54.7432 94.6022 54.5911 95.218 54.2901C95.8338 53.9891 96.3735 53.5472 96.7953 52.9988C97.2171 52.4503 97.5096 51.8099 97.6502 51.1273C97.7908 50.4447 97.7757 49.7382 97.6061 49.0625C97.5842 48.9841 97.535 48.9165 97.4678 48.8724C97.4006 48.8284 97.3199 48.811 97.241 48.8234C95.9412 48.9529 94.6911 49.4004 93.5963 50.1279C92.5015 50.8555 91.5942 51.8417 90.9511 53.0033C90.2023 51.2816 89.4722 49.4547 88.8358 47.5704C89.6459 48.0415 90.5535 48.3102 91.4846 48.3547C91.8541 48.359 92.2215 48.2975 92.5704 48.173C94.4424 47.5417 95.5188 45.2366 96.4361 42.8454C96.4567 42.8022 96.4675 42.7548 96.4675 42.7067C96.4675 42.6586 96.4567 42.6112 96.4361 42.568C96.4145 42.5241 96.3842 42.4853 96.3471 42.454C96.3101 42.4227 96.2671 42.3996 96.2208 42.3863C92.4768 41.315 89.3974 44.9975 88.4426 46.3174C87.9434 44.7248 87.5279 43.106 87.1978 41.468C87.9842 41.6253 88.7832 41.7086 89.5846 41.7167C90.3809 41.7762 91.1808 41.6677 91.9344 41.3978C92.688 41.1279 93.3792 40.7025 93.965 40.1481C95.0976 38.9238 95.369 37.0873 94.7606 34.8491C94.7498 34.8053 94.7305 34.7641 94.7037 34.7281C94.6769 34.6921 94.6432 34.662 94.6047 34.6396C94.5662 34.6173 94.5237 34.6031 94.4797 34.598C94.4357 34.5929 94.3912 34.597 94.3488 34.61C91.3618 35.5625 88.7617 37.4873 86.945 40.0907L86.8046 39.2203C86.7947 39.145 86.762 39.0747 86.711 39.0194C86.5567 38.4535 86.2878 37.927 85.9218 37.4739C85.5558 37.0208 85.1008 36.6512 84.5863 36.3891C83.9111 36.1229 83.1884 36.0057 82.4656 36.0453C81.7429 36.0848 81.0366 36.2802 80.393 36.6186C80.3436 36.6405 80.2995 36.6733 80.2638 36.7146C80.2282 36.756 80.202 36.8048 80.1871 36.8578C80.1756 36.9097 80.1764 36.9637 80.1894 37.0153C80.2025 37.0669 80.2273 37.1145 80.262 37.1543C80.3556 37.2786 82.4148 39.7655 85.1854 39.7655C85.484 39.7615 85.7817 39.7295 86.0746 39.6698C86.1962 40.4828 86.346 41.2959 86.5145 42.0993C85.4471 41.3813 84.2428 40.9026 82.9812 40.6948C81.7195 40.4871 80.4291 40.555 79.195 40.8941C79.1025 40.9232 79.025 40.9885 78.9797 41.0759C78.9611 41.1213 78.9516 41.1701 78.9516 41.2193C78.9516 41.2686 78.9611 41.3174 78.9797 41.3628C80.0561 44.0218 81.7222 45.7053 83.4444 45.8487H83.6784C84.5489 45.8487 85.7282 45.4374 86.9263 43.8019C87.3981 45.6616 87.9668 47.4943 88.6298 49.2921C87.0106 48.5078 83.3695 47.1591 80.7674 49.2156C80.7317 49.242 80.7015 49.2755 80.6787 49.3142C80.656 49.3528 80.6411 49.3958 80.635 49.4404C80.6289 49.4851 80.6316 49.5306 80.6431 49.5741C80.6546 49.6176 80.6746 49.6584 80.7019 49.6938C82.3867 52.0372 83.9405 53.1754 85.4662 53.1754C86.7298 53.1754 87.9372 52.3624 89.1446 50.7555C89.8373 52.5154 90.5861 54.1989 91.3255 55.7484C89.7062 54.7249 87.9278 54.8875 85.8312 56.2362C85.7827 56.2659 85.7425 56.308 85.7147 56.3582C85.6868 56.4085 85.6721 56.4653 85.6721 56.5231C85.6682 56.5794 85.6792 56.6357 85.7039 56.6862C85.7286 56.7367 85.7661 56.7794 85.8125 56.8101C87.0612 57.7298 88.5359 58.2763 90.0713 58.3883C90.8634 58.4043 91.6401 58.1632 92.2896 57.6996C92.8886 58.8761 93.4783 59.9569 94.0212 60.923H91.129V62.6064H92.1773L93.0478 71.5208H105.862L106.723 62.6064H107.78V60.923H102.024C102.66 59.8421 103.475 58.3978 104.345 56.7049C104.371 56.6708 104.39 56.6318 104.401 56.5901C104.626 56.1597 104.841 55.7197 105.066 55.2606C105.447 55.8491 105.96 56.336 106.562 56.6804C107.165 57.0249 107.839 57.2169 108.529 57.2405C108.673 57.25 108.816 57.25 108.96 57.2405C109.722 57.1522 110.446 56.8498 111.051 56.367C111.655 55.8842 112.117 55.2397 112.385 54.5049C112.413 54.4294 112.413 54.3463 112.386 54.2707C112.358 54.1952 112.305 54.1323 112.236 54.0937C111.254 53.5271 110.155 53.2074 109.029 53.1608C107.903 53.1142 106.782 53.3422 105.759 53.8258C106.245 52.7833 106.695 51.6642 107.181 50.5068C107.218 50.4639 107.241 50.4105 107.247 50.3538C107.378 50.0286 107.5 49.7034 107.631 49.3973C108.744 50.832 109.849 51.5398 111 51.5398C112.395 51.5398 113.808 50.4877 115.325 48.3165C115.377 48.2439 115.4 48.1531 115.388 48.0636C115.375 47.9742 115.329 47.8932 115.259 47.8382C112.872 46.0113 109.643 47.2643 108.127 47.9913C108.436 47.1304 108.716 46.26 108.978 45.3705L109.007 45.2748Z" fill="#E0E0E0"/>
<path d="M376.712 41.2385H328.845V94.9452H376.712V41.2385Z" fill="#E0E0E0"/>
<path d="M370.806 43.4384C370.766 43.4482 370.724 43.4482 370.684 43.4384C370.572 43.3619 359.265 36.4943 355.708 36.4943C352.151 36.4943 341.34 43.3619 341.228 43.4289C341.203 43.4461 341.174 43.4578 341.144 43.4633C341.114 43.4688 341.083 43.468 341.053 43.4608C341.023 43.4536 340.995 43.4403 340.97 43.4217C340.946 43.403 340.925 43.3794 340.91 43.3523C340.878 43.2989 340.869 43.2349 340.883 43.1742C340.897 43.1134 340.933 43.0606 340.985 43.0271C341.434 42.7402 351.983 36.0161 355.708 36.0161C359.433 36.0161 370.497 42.7115 370.965 43.0271C370.991 43.0428 371.015 43.0639 371.033 43.089C371.051 43.1141 371.064 43.1428 371.071 43.1732C371.078 43.2037 371.079 43.2353 371.074 43.2661C371.068 43.2969 371.057 43.3262 371.04 43.3523C371.013 43.3886 370.977 43.4162 370.936 43.4315C370.894 43.4468 370.849 43.4492 370.806 43.4384Z" fill="#EBEBEB"/>
<path d="M381.888 41.2385H332.448V94.9452H381.888V41.2385Z" fill="#F5F5F5"/>
<path d="M377.751 90.7079V45.4661H336.595V90.7079H377.751Z" fill="white"/>
<path d="M365.144 76.2376C369.549 71.7365 369.549 64.4388 365.144 59.9378C360.739 55.4367 353.598 55.4367 349.193 59.9378C344.789 64.4389 344.789 71.7365 349.193 76.2376C353.598 80.7386 360.739 80.7386 365.144 76.2376Z" fill="#E0E0E0"/>
<path d="M356.214 238.447H398.165C402.014 238.45 405.711 236.91 408.461 234.157C411.211 231.405 412.794 227.659 412.87 223.726L414.442 145.237C414.471 143.781 414.215 142.333 413.689 140.979C413.163 139.624 412.378 138.391 411.38 137.351C410.382 136.31 409.191 135.484 407.876 134.92C406.562 134.356 405.151 134.065 403.725 134.065H377.423C374.792 134.065 372.253 135.054 370.29 136.845C368.327 138.636 367.078 141.102 366.781 143.774L356.214 238.447Z" fill="#E6E6E6"/>
<path d="M379.108 238.447H334.405C333.849 238.447 333.315 238.221 332.922 237.819C332.529 237.418 332.308 236.873 332.308 236.304V236.104C332.308 234.546 332.914 233.052 333.991 231.951C335.069 230.849 336.531 230.231 338.055 230.231H379.108V238.447Z" fill="#E6E6E6"/>
<path d="M375.579 304.703C375.362 304.708 375.149 304.635 374.978 304.497C374.807 304.359 374.689 304.165 374.643 303.947L361.539 239.403H338.701L325.597 303.947C325.546 304.201 325.398 304.423 325.187 304.566C324.975 304.709 324.717 304.76 324.469 304.708C324.221 304.656 324.003 304.505 323.863 304.289C323.724 304.073 323.674 303.809 323.725 303.555L336.997 238.256C337.041 238.036 337.159 237.84 337.33 237.7C337.501 237.56 337.714 237.486 337.933 237.49H362.269C362.488 237.486 362.702 237.56 362.873 237.7C363.044 237.84 363.162 238.036 363.205 238.256L376.468 303.555C376.518 303.802 376.471 304.06 376.336 304.271C376.201 304.482 375.989 304.631 375.748 304.684C375.693 304.697 375.636 304.703 375.579 304.703Z" fill="#E6E6E6"/>
<path d="M361.343 304.703C361.281 304.712 361.218 304.712 361.156 304.703C361.035 304.678 360.921 304.629 360.819 304.558C360.717 304.488 360.629 304.398 360.562 304.293C360.494 304.188 360.447 304.071 360.424 303.947C360.4 303.824 360.401 303.697 360.425 303.574L373.698 238.275C373.742 238.055 373.859 237.859 374.03 237.719C374.201 237.579 374.415 237.505 374.634 237.51H398.97C399.189 237.505 399.403 237.579 399.574 237.719C399.745 237.859 399.862 238.055 399.906 238.275L413.169 303.574C413.194 303.7 413.195 303.829 413.171 303.955C413.148 304.081 413.1 304.201 413.031 304.308C412.962 304.415 412.872 304.507 412.769 304.579C412.665 304.651 412.548 304.701 412.425 304.727C412.302 304.752 412.175 304.753 412.052 304.729C411.929 304.705 411.812 304.656 411.707 304.585C411.602 304.515 411.512 304.424 411.442 304.317C411.371 304.211 411.322 304.092 411.297 303.966L398.193 239.423H375.336L362.232 303.966C362.184 304.172 362.071 304.356 361.91 304.49C361.749 304.623 361.55 304.698 361.343 304.703Z" fill="#E6E6E6"/>
<path d="M234 346.826C334.229 346.826 415.481 341.979 415.481 335.999C415.481 330.019 334.229 325.172 234 325.172C133.771 325.172 52.519 330.019 52.519 335.999C52.519 341.979 133.771 346.826 234 346.826Z" fill="#F5F5F5"/>
<path d="M250.015 327.161C249.722 327.16 249.438 327.056 249.211 326.866C248.984 326.676 248.828 326.412 248.77 326.119L230.986 236.63H200.014L182.23 326.119C182.145 326.437 181.945 326.711 181.67 326.885C181.394 327.058 181.065 327.118 180.748 327.052C180.431 326.987 180.151 326.8 179.964 326.531C179.776 326.261 179.696 325.929 179.74 325.602L197.73 235.071C197.79 234.778 197.946 234.514 198.172 234.325C198.399 234.135 198.682 234.03 198.975 234.028H232.016C232.309 234.029 232.593 234.133 232.82 234.323C233.047 234.513 233.202 234.777 233.261 235.071L251.26 325.602C251.326 325.939 251.259 326.29 251.073 326.577C250.887 326.863 250.598 327.063 250.268 327.132L250.015 327.161Z" fill="#2588E3"/>
<path d="M200.304 327.161C200.011 327.159 199.728 327.054 199.501 326.864C199.275 326.675 199.119 326.411 199.059 326.119L181.275 236.63H150.303L132.519 326.119C132.495 326.295 132.437 326.464 132.347 326.617C132.256 326.769 132.137 326.901 131.995 327.004C131.853 327.107 131.692 327.179 131.521 327.216C131.351 327.253 131.175 327.253 131.004 327.218C130.834 327.183 130.672 327.112 130.529 327.01C130.386 326.908 130.265 326.777 130.174 326.626C130.083 326.474 130.023 326.305 129.998 326.129C129.973 325.953 129.983 325.774 130.029 325.602L148.028 235.071C148.087 234.777 148.242 234.513 148.469 234.323C148.696 234.133 148.98 234.029 149.273 234.028H182.314C182.606 234.029 182.889 234.133 183.114 234.324C183.339 234.514 183.493 234.778 183.55 235.071L201.549 325.602C201.615 325.939 201.548 326.29 201.362 326.577C201.176 326.863 200.886 327.063 200.557 327.132L200.304 327.161Z" fill="#2588E3"/>
<path d="M207.258 235.338H150.35C145.126 235.339 140.11 233.247 136.379 229.512C132.648 225.776 130.5 220.694 130.394 215.357L128.279 126.978C128.239 125.002 128.585 123.039 129.297 121.202C130.009 119.365 131.073 117.691 132.426 116.279C133.779 114.868 135.393 113.746 137.176 112.98C138.958 112.214 140.872 111.818 142.806 111.818H178.486C182.057 111.82 185.502 113.165 188.165 115.595C190.829 118.026 192.524 121.373 192.928 124.998L207.258 235.338Z" fill="#2588E3"/>
<path d="M176.221 224.147H231.913C233.981 224.147 235.964 224.987 237.426 226.481C238.888 227.975 239.71 230.002 239.71 232.115V232.392C239.71 233.153 239.414 233.883 238.887 234.421C238.361 234.959 237.646 235.262 236.902 235.262H176.221V224.147Z" fill="#2588E3"/>
<g opacity="0.3">
<path opacity="0.3" d="M250.015 327.161C249.722 327.16 249.438 327.056 249.211 326.866C248.984 326.676 248.828 326.412 248.77 326.119L230.986 236.63H200.014L182.23 326.119C182.145 326.437 181.945 326.711 181.67 326.885C181.394 327.058 181.065 327.118 180.748 327.052C180.431 326.987 180.151 326.8 179.964 326.531C179.776 326.261 179.696 325.929 179.74 325.602L197.73 235.071C197.79 234.778 197.946 234.515 198.172 234.325C198.399 234.135 198.682 234.03 198.975 234.028H232.016C232.309 234.029 232.593 234.133 232.82 234.323C233.047 234.513 233.202 234.777 233.261 235.071L251.26 325.602C251.326 325.939 251.259 326.29 251.073 326.577C250.887 326.863 250.598 327.063 250.268 327.132L250.015 327.161Z" fill="black"/>
<path opacity="0.3" d="M200.304 327.161C200.011 327.159 199.728 327.054 199.501 326.864C199.275 326.675 199.119 326.411 199.059 326.119L181.275 236.63H150.303L132.519 326.119C132.495 326.295 132.437 326.464 132.347 326.617C132.256 326.769 132.137 326.901 131.995 327.004C131.853 327.107 131.692 327.179 131.521 327.216C131.351 327.253 131.175 327.253 131.004 327.218C130.834 327.183 130.672 327.112 130.529 327.01C130.386 326.908 130.265 326.777 130.174 326.626C130.083 326.474 130.023 326.305 129.998 326.129C129.973 325.953 129.983 325.774 130.029 325.602L148.028 235.071C148.087 234.777 148.242 234.513 148.469 234.323C148.696 234.133 148.98 234.029 149.273 234.028H182.314C182.606 234.029 182.889 234.134 183.114 234.324C183.339 234.514 183.493 234.778 183.55 235.071L201.549 325.602C201.615 325.939 201.548 326.29 201.362 326.577C201.176 326.863 200.886 327.063 200.557 327.132L200.304 327.161Z" fill="black"/>
<path opacity="0.3" d="M207.258 235.338H150.35C145.126 235.339 140.11 233.247 136.379 229.512C132.648 225.776 130.5 220.694 130.394 215.357L128.279 126.978C128.239 125.002 128.585 123.039 129.297 121.202C130.009 119.365 131.073 117.691 132.426 116.279C133.779 114.868 135.393 113.746 137.176 112.98C138.958 112.214 140.872 111.818 142.806 111.818H178.486C182.057 111.82 185.502 113.165 188.165 115.595C190.829 118.026 192.524 121.373 192.928 124.998L207.258 235.338Z" fill="black"/>
<path opacity="0.3" d="M176.221 224.147H231.913C233.981 224.147 235.964 224.987 237.426 226.481C238.888 227.975 239.71 230.002 239.71 232.115V232.392C239.71 233.153 239.414 233.883 238.887 234.421C238.361 234.959 237.646 235.262 236.902 235.262H176.221V224.147Z" fill="black"/>
</g>
<path d="M191.421 106.94C191.421 106.94 199.377 117.557 194.229 138.695C189.081 159.833 162.518 148.355 160.908 129.302C159.036 106.844 183.709 122.329 188.052 102.358L191.421 106.94Z" fill="#263238"/>
<path d="M185.646 100.636C182.192 103.123 180.826 106.739 184.645 110.278C188.464 113.817 193.911 113.702 195.558 112.248C197.206 110.794 196.878 103.41 196.878 103.41L185.646 100.636Z" fill="#2588E3"/>
<path opacity="0.8" d="M185.646 100.636C182.192 103.123 180.826 106.739 184.645 110.278C188.464 113.817 193.911 113.702 195.558 112.248C197.206 110.794 196.878 103.41 196.878 103.41L185.646 100.636Z" fill="white"/>
<path d="M229.264 147.686C229.357 148.116 229.516 148.786 229.666 149.35L230.116 151.148C230.434 152.354 230.78 153.559 231.145 154.764C231.838 157.193 232.605 159.613 233.41 162.033C234.215 164.453 235.039 166.816 235.937 169.264C236.377 170.46 236.817 171.665 237.285 172.861L237.828 174.295C237.937 174.541 238.078 174.769 238.249 174.974C239.582 176.352 241.205 177.399 242.995 178.035C245.181 178.934 247.435 179.651 249.734 180.178C252.112 180.742 254.555 181.211 257.026 181.603C259.497 181.995 262.033 182.311 264.467 182.559L264.551 187.705C259.211 188.27 253.829 188.27 248.489 187.705C245.698 187.411 242.939 186.864 240.243 186.07C238.783 185.619 237.362 185.047 235.994 184.358C234.419 183.575 232.977 182.539 231.725 181.287C230.999 180.548 230.37 179.715 229.853 178.81C229.713 178.58 229.591 178.322 229.46 178.083L229.217 177.567L228.786 176.61C228.206 175.395 227.626 174.181 227.092 172.947C226.006 170.479 224.949 167.992 224.003 165.457C223.058 162.923 222.131 160.369 221.345 157.806C220.961 156.486 220.587 155.175 220.241 153.827L219.726 151.808C219.576 151.081 219.436 150.479 219.286 149.618L229.264 147.686Z" fill="#E58A7B"/>
<path d="M226.081 136.82C230.097 137.863 232.896 154.735 232.896 154.735L221.841 162.387C221.841 162.387 211.236 145.362 214.353 140.857C217.545 136.227 220.222 135.328 226.081 136.82Z" fill="#2588E3"/>
<path opacity="0.5" d="M226.081 136.82C230.097 137.863 232.896 154.735 232.896 154.735L221.841 162.387C221.841 162.387 211.236 145.362 214.353 140.857C217.545 136.227 220.222 135.328 226.081 136.82Z" fill="white"/>
<path opacity="0.2" d="M224.64 141.067L215.027 148.853C216.899 153.582 219.176 158.134 221.832 162.454L229.498 157.126L224.64 141.067Z" fill="#2588E3"/>
<path d="M226.081 136.82C226.081 136.82 230.761 138.485 221.401 196.859H181.884C182.548 180.417 182.567 170.278 174.882 136.524C180.416 135.359 186.025 134.605 191.665 134.266C197.644 133.831 203.647 133.831 209.627 134.266C217.339 135.022 226.081 136.82 226.081 136.82Z" fill="#2588E3"/>
<path opacity="0.5" d="M226.081 136.82C226.081 136.82 230.761 138.485 221.401 196.859H181.884C182.548 180.417 182.567 170.278 174.882 136.524C180.416 135.359 186.025 134.605 191.665 134.266C197.644 133.831 203.647 133.831 209.627 134.266C217.339 135.022 226.081 136.82 226.081 136.82Z" fill="white"/>
<path d="M263.016 182.512L269.914 175.357L270.85 185.438C270.85 185.438 265.674 189.016 262.099 187.093L263.016 182.512Z" fill="#E58A7B"/>
<path d="M278.057 174.295L278.366 182.77L270.841 185.438L269.933 175.357L278.057 174.295Z" fill="#E58A7B"/>
<path d="M266.255 317.883H275.989L277.486 294.841H267.752L266.255 317.883Z" fill="#E58A7B"/>
<path d="M228.581 317.883H238.315L241.441 294.841H231.707L228.581 317.883Z" fill="#E58A7B"/>
<path d="M238.923 316.726H227.982C227.793 316.722 227.61 316.789 227.466 316.914C227.323 317.039 227.23 317.214 227.205 317.405L225.96 326.252C225.937 326.476 225.961 326.701 226.03 326.915C226.098 327.128 226.21 327.325 226.357 327.492C226.504 327.658 226.684 327.792 226.885 327.883C227.086 327.974 227.303 328.022 227.523 328.022C231.332 327.955 233.139 327.725 237.978 327.725C240.936 327.725 248.527 328.041 252.617 328.041C256.707 328.041 256.923 323.909 255.219 323.536C247.591 321.852 243.117 319.547 240.543 317.338C240.091 316.944 239.517 316.727 238.923 316.726Z" fill="#263238"/>
<path d="M276.747 316.726H265.824C265.636 316.724 265.454 316.792 265.311 316.916C265.168 317.041 265.074 317.215 265.047 317.405L263.802 326.252C263.78 326.476 263.804 326.702 263.872 326.915C263.941 327.129 264.052 327.325 264.199 327.492C264.347 327.659 264.526 327.792 264.727 327.883C264.928 327.974 265.145 328.022 265.365 328.022C269.175 327.955 270.981 327.725 275.82 327.725C278.787 327.725 284.9 328.041 288.99 328.041C293.08 328.041 293.296 323.909 291.592 323.536C283.964 321.853 280.959 319.547 278.394 317.338C277.934 316.94 277.35 316.723 276.747 316.726Z" fill="#263238"/>
<path d="M218.322 93.5104C221.823 93.74 223.601 111.684 213.333 110.641C203.065 109.599 218.322 93.5104 218.322 93.5104Z" fill="#263238"/>
<path d="M277.486 294.841L276.71 306.721H266.975L267.743 294.841H277.486Z" fill="#CF6F64"/>
<path d="M231.707 294.841H241.451L239.831 306.721H230.088L231.707 294.841Z" fill="#CF6F64"/>
<path opacity="0.2" d="M178.832 155.29C179.768 160.187 180.433 164.415 180.938 168.222L183.25 149.943L178.832 155.29Z" fill="#2588E3"/>
<path d="M193.443 113.645C194.576 119.546 195.708 130.364 191.665 134.305C191.665 134.305 193.247 140.292 203.982 140.292C215.785 140.292 209.598 134.305 209.598 134.305C203.149 132.736 203.318 127.848 204.441 123.267L193.443 113.645Z" fill="#E58A7B"/>
<path d="M201.848 141.574L205.443 140.254L204.965 139.25L201.848 141.574Z" fill="#263238"/>
<path d="M208.822 140.808L205.443 140.253L206.173 139.135L208.822 140.808Z" fill="#263238"/>
<path d="M192.975 131.521L190.532 133.951C190.459 134.028 190.418 134.131 190.418 134.238C190.418 134.345 190.459 134.448 190.532 134.525L200.828 146.509C201.318 143.663 202.809 141.098 205.021 139.298C196.504 136.007 194.285 132.602 193.527 131.646C193.51 131.59 193.478 131.54 193.436 131.501C193.394 131.462 193.342 131.434 193.286 131.422C193.23 131.409 193.172 131.412 193.118 131.429C193.063 131.447 193.014 131.478 192.975 131.521Z" fill="#2588E3"/>
<path d="M207.689 133.358L210.722 134.199C210.812 134.225 210.895 134.275 210.961 134.344C211.026 134.413 211.073 134.498 211.096 134.591C211.953 138.522 211.792 142.614 210.628 146.462C210.198 144.836 208.756 140.943 206.173 139.135C208.981 137.155 207.848 134.601 207.446 133.635C207.433 133.599 207.429 133.56 207.436 133.522C207.443 133.485 207.46 133.45 207.485 133.421C207.51 133.393 207.543 133.372 207.579 133.36C207.614 133.349 207.653 133.348 207.689 133.358Z" fill="#2588E3"/>
<path d="M197.945 117.566L204.497 123.257C204.225 124.324 204.04 125.411 203.945 126.509C201.483 126.146 198.104 123.391 197.842 120.77C197.682 119.705 197.717 118.618 197.945 117.566Z" fill="#CF6F64"/>
<path d="M192.816 98.0921C191.702 107.896 191.019 112.028 194.95 117.882C200.847 126.691 212.884 125.945 216.843 116.677C220.409 108.336 221.626 93.721 213.015 88.1351C211.121 86.8995 208.949 86.1794 206.705 86.0432C204.462 85.9071 202.222 86.3593 200.198 87.3571C198.174 88.3548 196.433 89.8649 195.141 91.7438C193.849 93.6227 193.049 95.808 192.816 98.0921Z" fill="#E58A7B"/>
<path d="M214.756 81.8987C198.891 75.4998 186.975 82.7213 184.514 92.9844C180.648 108.919 192.994 110.039 192.994 110.039L194.538 105.964C196.757 107.332 202.962 106.729 201.09 94.8974C199.986 88.2019 208.279 97.5277 218.799 96.4851C221.598 96.2078 225.426 86.2029 214.756 81.8987Z" fill="#263238"/>
<path d="M220.156 85.8395C218.069 82.5587 213.801 79.7467 204.956 78.4171C204.956 78.4171 209.552 79.4788 211.04 82.9126C212.528 86.3464 222.674 89.7897 220.156 85.8395Z" fill="#263238"/>
<path d="M189.765 106.576C189.7 107.519 189.818 108.466 190.112 109.362C190.406 110.258 190.87 111.086 191.478 111.798C193.115 113.711 195.268 112.535 195.942 110.239C196.541 108.164 196.42 104.682 194.229 103.63C192.039 102.578 189.942 104.242 189.765 106.576Z" fill="#E58A7B"/>
<path d="M221.43 196.897C221.43 196.897 286.706 203.105 286.07 233.435C285.405 264.999 278.797 304.425 278.797 304.425H265.309C265.309 304.425 264.158 271.063 263.765 239.987C263.568 223.803 200.491 220.561 200.491 220.561L192.348 196.897H221.43Z" fill="#263238"/>
<path d="M210.984 196.897C210.984 196.897 253.169 211.197 254.236 228.892C256.193 261.47 242.181 304.454 242.181 304.454H228.899C228.899 304.454 229.657 275.951 231.239 246.434C233.242 209.341 169.201 245.917 181.883 196.926L210.984 196.897Z" fill="#263238"/>
<path d="M206.697 103.439C206.556 104.223 206.856 104.94 207.361 105.036C207.867 105.132 208.382 104.558 208.522 103.774C208.662 102.989 208.363 102.262 207.857 102.176C207.352 102.09 206.856 102.645 206.697 103.439Z" fill="#263238"/>
<path d="M215.43 105.036C215.289 105.82 215.589 106.538 216.094 106.633C216.6 106.729 217.124 106.155 217.264 105.371C217.405 104.587 217.105 103.86 216.6 103.774C216.094 103.687 215.57 104.242 215.43 105.036Z" fill="#263238"/>
<path d="M216.366 103.773L218.322 103.563C218.322 103.563 217.152 104.872 216.366 103.773Z" fill="#263238"/>
<path d="M212.884 105.964C213.258 107.891 213.888 109.758 214.756 111.512C214.315 111.717 213.836 111.823 213.352 111.823C212.867 111.823 212.389 111.717 211.948 111.512L212.884 105.964Z" fill="#DF5753"/>
<path d="M208.728 114.065C207.701 113.899 206.727 113.487 205.884 112.864C205.042 112.241 204.355 111.424 203.88 110.479C203.864 110.442 203.863 110.4 203.877 110.362C203.891 110.325 203.919 110.294 203.954 110.278C203.992 110.265 204.033 110.266 204.069 110.282C204.105 110.298 204.135 110.327 204.151 110.364C204.601 111.257 205.249 112.03 206.044 112.621C206.839 113.213 207.758 113.606 208.728 113.769C208.767 113.778 208.801 113.802 208.824 113.835C208.846 113.869 208.855 113.91 208.85 113.951C208.843 113.98 208.827 114.006 208.806 114.027C208.784 114.047 208.757 114.061 208.728 114.065Z" fill="#263238"/>
<path d="M204.647 99.9086C204.606 99.9101 204.566 99.9023 204.529 99.8858C204.492 99.8692 204.458 99.8443 204.432 99.813C204.403 99.7861 204.381 99.7536 204.365 99.7174C204.35 99.6812 204.342 99.6421 204.342 99.6026C204.342 99.5631 204.35 99.5241 204.365 99.4879C204.381 99.4517 204.403 99.4191 204.432 99.3923C204.936 98.8891 205.551 98.517 206.226 98.3074C206.9 98.0977 207.614 98.0567 208.307 98.1877C208.38 98.21 208.442 98.26 208.48 98.3276C208.519 98.3951 208.53 98.475 208.513 98.551C208.504 98.5895 208.488 98.6259 208.465 98.658C208.442 98.69 208.414 98.7171 208.38 98.7376C208.347 98.7581 208.31 98.7716 208.272 98.7773C208.234 98.783 208.195 98.7808 208.157 98.7709C207.559 98.6629 206.944 98.703 206.365 98.8876C205.785 99.0722 205.257 99.3961 204.825 99.8321C204.775 99.8758 204.713 99.9025 204.647 99.9086Z" fill="#263238"/>
<path d="M220.203 101.478C220.145 101.48 220.088 101.464 220.039 101.431C219.991 101.399 219.953 101.352 219.932 101.296C219.703 100.722 219.345 100.212 218.886 99.8059C218.427 99.4003 217.881 99.1113 217.292 98.9625C217.216 98.9485 217.148 98.9047 217.103 98.8405C217.057 98.7763 217.038 98.6966 217.049 98.6182C217.063 98.5383 217.107 98.4673 217.172 98.4206C217.237 98.374 217.317 98.3556 217.395 98.3695C218.081 98.5318 218.718 98.8609 219.253 99.3289C219.787 99.7968 220.203 100.39 220.465 101.057C220.497 101.131 220.499 101.214 220.471 101.289C220.443 101.365 220.387 101.426 220.316 101.459L220.203 101.478Z" fill="#263238"/>
<path d="M180.788 150.957C179.937 153.827 179.019 156.696 178.205 159.642C177.391 162.588 176.53 165.457 175.79 168.375C175.051 171.292 174.349 174.181 173.825 176.983C173.572 178.399 173.338 179.805 173.207 181.125C173.132 181.785 173.094 182.406 173.085 182.98C173.085 183.114 173.085 182.98 172.992 182.76C172.877 182.501 172.719 182.265 172.524 182.062C172.046 181.641 171.868 181.718 172.084 181.785C172.475 181.882 172.879 181.924 173.282 181.909C174.542 181.865 175.795 181.702 177.026 181.421C179.814 180.794 182.561 179.992 185.253 179.02C190.785 177.107 196.401 174.774 201.867 172.392L204.282 176.897C199.096 180.371 193.675 183.465 188.061 186.156C185.154 187.557 182.155 188.749 179.085 189.724C177.376 190.255 175.62 190.617 173.843 190.804C172.733 190.921 171.614 190.892 170.511 190.718C169.779 190.606 169.065 190.397 168.386 190.097C167.509 189.709 166.714 189.15 166.046 188.451C164.748 187.054 164.005 185.213 163.959 183.286C163.912 182.33 163.903 181.373 163.959 180.513C164.025 178.743 164.184 177.069 164.399 175.434C164.848 172.162 165.429 169.006 166.14 165.869C166.851 162.731 167.61 159.699 168.443 156.658C169.276 153.616 170.174 150.632 171.251 147.59L180.788 150.957Z" fill="#E58A7B"/>
<path d="M242.256 318.4C241.393 318.378 240.536 318.256 239.7 318.036C239.669 318.03 239.64 318.015 239.618 317.992C239.595 317.969 239.58 317.939 239.574 317.907C239.568 317.875 239.571 317.842 239.584 317.813C239.596 317.783 239.617 317.757 239.644 317.74C239.972 317.52 242.892 315.588 244.006 316.095C244.123 316.148 244.223 316.234 244.295 316.342C244.368 316.45 244.41 316.576 244.418 316.707C244.464 316.919 244.456 317.14 244.394 317.348C244.331 317.556 244.217 317.744 244.062 317.893C243.537 318.274 242.897 318.453 242.256 318.4ZM240.15 317.807C241.956 318.189 243.313 318.141 243.837 317.644C243.951 317.531 244.035 317.39 244.081 317.234C244.127 317.078 244.133 316.913 244.099 316.755C244.096 316.679 244.072 316.606 244.031 316.544C243.99 316.482 243.932 316.432 243.865 316.401C243.154 316.075 241.179 317.156 240.15 317.807Z" fill="#2588E3"/>
<path d="M239.738 318.046H239.653C239.627 318.03 239.606 318.008 239.591 317.981C239.576 317.954 239.568 317.924 239.569 317.893C239.569 317.778 239.569 314.947 240.617 314.009C240.74 313.889 240.889 313.8 241.051 313.748C241.214 313.697 241.386 313.685 241.554 313.713C241.722 313.711 241.886 313.77 242.018 313.878C242.149 313.986 242.24 314.137 242.274 314.306C242.471 315.339 240.842 317.453 239.822 318.046H239.738ZM241.385 314.009C241.179 314.011 240.981 314.093 240.833 314.239C240.093 314.908 239.944 316.802 239.897 317.558C240.833 316.869 242.087 315.128 241.928 314.354C241.928 314.229 241.834 314.067 241.497 314.019L241.385 314.009Z" fill="#2588E3"/>
<path d="M280.407 318.4C279.378 318.376 278.354 318.258 277.346 318.046C277.313 318.037 277.283 318.019 277.26 317.994C277.237 317.968 277.221 317.937 277.215 317.902C277.21 317.867 277.216 317.831 277.233 317.8C277.25 317.769 277.277 317.744 277.309 317.73C277.739 317.501 281.586 315.492 282.756 316.142C282.858 316.2 282.944 316.283 283.006 316.383C283.068 316.483 283.105 316.598 283.112 316.716C283.138 316.916 283.116 317.118 283.048 317.307C282.979 317.495 282.866 317.664 282.719 317.797C282.038 318.262 281.222 318.474 280.407 318.4ZM277.889 317.807C279.143 318.027 281.633 318.342 282.494 317.558C282.602 317.455 282.684 317.328 282.734 317.187C282.785 317.046 282.802 316.894 282.784 316.745C282.784 316.68 282.766 316.617 282.733 316.561C282.7 316.506 282.653 316.46 282.597 316.429C281.83 316.008 279.246 317.128 277.889 317.807Z" fill="#2588E3"/>
<path d="M277.384 318.046C277.353 318.055 277.321 318.055 277.29 318.046C277.267 318.027 277.249 318.004 277.236 317.978C277.223 317.951 277.216 317.922 277.215 317.893C277.215 317.778 277.449 315.128 278.647 314.067C278.815 313.921 279.011 313.811 279.221 313.745C279.432 313.679 279.654 313.659 279.873 313.684C280.472 313.742 280.641 314.048 280.688 314.287C280.856 315.387 278.591 317.491 277.449 318.017L277.384 318.046ZM279.696 314.009C279.388 314.008 279.091 314.124 278.862 314.335C277.983 315.081 277.674 316.869 277.58 317.587C278.806 316.888 280.482 315.09 280.388 314.354C280.388 314.277 280.388 314.067 279.873 314.019L279.696 314.009Z" fill="#2588E3"/>
<path d="M201.642 172.545L210.871 170.154L206.472 179.212C206.472 179.212 200.229 179.489 198.17 175.931L201.642 172.545Z" fill="#E58A7B"/>
<path d="M218.331 173.588L214.25 180.972L206.472 179.212L210.871 170.154L218.331 173.588Z" fill="#E58A7B"/>
<path d="M207.624 102.176L209.58 101.966C209.58 101.966 208.372 103.275 207.624 102.176Z" fill="#263238"/>
<path d="M181.294 194.525L180.976 198.141C180.845 198.428 181.163 198.714 181.621 198.714H221.626C221.982 198.714 222.272 198.533 222.3 198.303L222.656 194.688C222.656 194.439 222.365 194.229 221.982 194.229H181.94C181.816 194.218 181.692 194.24 181.579 194.291C181.466 194.343 181.368 194.424 181.294 194.525Z" fill="#2588E3"/>
<path d="M186.676 199.107H185.599C185.384 199.107 185.225 198.992 185.234 198.858L185.74 194.152C185.74 194.018 185.946 193.903 186.161 193.903H187.2C187.415 193.903 187.574 194.018 187.565 194.152L187.06 198.858C187.069 198.992 186.882 199.107 186.676 199.107Z" fill="#263238"/>
<path d="M218.612 199.107H217.536C217.32 199.107 217.161 198.992 217.171 198.858L217.676 194.152C217.676 194.018 217.882 193.903 218.097 193.903H219.164C219.38 193.903 219.539 194.018 219.529 194.152L219.024 198.858C219.024 198.992 218.818 199.107 218.612 199.107Z" fill="#263238"/>
<path d="M202.644 199.107H201.568C201.352 199.107 201.193 198.992 201.203 198.858L201.708 194.152C201.708 194.018 201.914 193.903 202.129 193.903H203.196C203.411 193.903 203.571 194.018 203.561 194.152L203.056 198.858C203.037 198.992 202.859 199.107 202.644 199.107Z" fill="#263238"/>
<path d="M174.882 136.562C170.914 137.796 166.159 151.732 166.159 151.732L178.935 164.482C178.935 164.482 187.134 151.33 185.487 146.098C183.737 140.646 179.403 135.166 174.882 136.562Z" fill="#2588E3"/>
<path opacity="0.5" d="M174.882 136.562C170.914 137.796 166.159 151.732 166.159 151.732L178.935 164.482C178.935 164.482 187.134 151.33 185.487 146.098C183.737 140.646 179.403 135.166 174.882 136.562Z" fill="white"/>
<path d="M387.186 186.959H312.718V334.976H387.186V186.959Z" fill="#2588E3"/>
<path opacity="0.6" d="M387.186 186.959H312.718V334.976H387.186V186.959Z" fill="white"/>
<path d="M242.92 186.959H168.452V334.976H242.92V186.959Z" fill="#2588E3"/>
<path opacity="0.6" d="M242.92 186.959H168.452V334.976H242.92V186.959Z" fill="white"/>
<path d="M389.975 186.959H383.835V334.976H389.975V186.959Z" fill="#2588E3"/>
<path opacity="0.3" d="M389.975 186.959H383.835V334.976H389.975V186.959Z" fill="black"/>
<path d="M243.809 198.064L391.875 198.064V186.959L243.809 186.959V198.064Z" fill="#2588E3"/>
<path opacity="0.3" d="M243.809 198.064L391.875 198.064V186.959L243.809 186.959V198.064Z" fill="black"/>
<path d="M245.719 186.959H239.579V334.976H245.719V186.959Z" fill="#2588E3"/>
<path opacity="0.3" d="M245.719 186.959H239.579V334.976H245.719V186.959Z" fill="black"/>
<path d="M243.454 222.368L386.905 222.368V190.393L243.454 190.393V222.368Z" fill="#2588E3"/>
<path opacity="0.3" d="M243.454 222.368L386.905 222.368V190.393L243.454 190.393V222.368Z" fill="black"/>
<path d="M387.223 339.28H345.88C343.073 339.277 340.382 338.137 338.397 336.109C336.412 334.08 335.296 331.33 335.294 328.462V195.166C335.294 192.629 334.308 190.196 332.552 188.403C330.797 186.609 328.416 185.601 325.934 185.601H313.56V184.645H325.924C328.655 184.645 331.274 185.753 333.205 187.726C335.136 189.699 336.22 192.375 336.22 195.166V328.462C336.223 331.077 337.24 333.583 339.05 335.432C340.859 337.281 343.312 338.321 345.871 338.323H387.223C387.927 338.325 388.613 338.099 389.184 337.678C389.755 337.258 390.181 336.664 390.402 335.981C390.623 335.298 390.627 334.562 390.415 333.876C390.202 333.191 389.782 332.591 389.217 332.164L389.769 331.398C390.491 331.946 391.026 332.712 391.298 333.589C391.569 334.465 391.564 335.406 391.282 336.279C391 337.152 390.456 337.911 389.727 338.45C388.999 338.989 388.122 339.279 387.223 339.28Z" fill="#2588E3"/>
<path opacity="0.3" d="M387.223 339.28H345.88C343.073 339.277 340.382 338.137 338.397 336.109C336.412 334.08 335.296 331.33 335.294 328.462V195.166C335.294 192.629 334.308 190.196 332.552 188.403C330.797 186.609 328.416 185.601 325.934 185.601H313.56V184.645H325.924C328.655 184.645 331.274 185.753 333.205 187.726C335.136 189.699 336.22 192.375 336.22 195.166V328.462C336.223 331.077 337.24 333.583 339.05 335.432C340.859 337.281 343.312 338.321 345.871 338.323H387.223C387.927 338.325 388.613 338.099 389.184 337.678C389.755 337.258 390.181 336.664 390.402 335.981C390.623 335.298 390.627 334.562 390.415 333.876C390.202 333.191 389.782 332.591 389.217 332.164L389.769 331.398C390.491 331.946 391.026 332.712 391.298 333.589C391.569 334.465 391.564 335.406 391.282 336.279C391 337.152 390.456 337.911 389.727 338.45C388.999 338.989 388.122 339.279 387.223 339.28Z" fill="black"/>
<path d="M393.251 230.632H392.315V249.121H393.251V230.632Z" fill="#2588E3"/>
<path opacity="0.3" d="M393.251 230.632H392.315V249.121H393.251V230.632Z" fill="black"/>
<path d="M393.251 219.719H392.315V224.578H393.251V219.719Z" fill="#2588E3"/>
<path opacity="0.3" d="M393.251 219.719H392.315V224.578H393.251V219.719Z" fill="black"/>
<path d="M324.698 142.77H255.303L245.25 184.644H314.636L324.698 142.77Z" fill="#2588E3"/>
<path opacity="0.4" d="M324.698 142.77H255.303L245.25 184.644H314.636L324.698 142.77Z" fill="white"/>
<path d="M247.375 184.645L247.095 186.959H219.866L220.147 184.645H247.375Z" fill="#2588E3"/>
<path opacity="0.4" d="M247.375 184.645L247.095 186.959H219.866L220.147 184.645H247.375Z" fill="white"/>
<path d="M316.771 184.645L316.49 186.959H247.095L247.375 184.645H316.771Z" fill="#2588E3"/>
<path opacity="0.5" d="M316.771 184.645L316.49 186.959H247.095L247.375 184.645H316.771Z" fill="black"/>
<path d="M326.832 142.77H257.437L247.384 184.644H316.77L326.832 142.77Z" fill="#2588E3"/>
<path opacity="0.5" d="M326.832 142.77H257.437L247.384 184.644H316.77L326.832 142.77Z" fill="black"/>
<path d="M353.63 176.409C353.63 176.409 343.418 158.418 357.552 144.099C357.552 144.099 361.249 146.567 361.193 149.838C361.137 153.109 357.234 153.989 358.067 156.744C358.9 159.498 362.597 162.224 360.173 164.51C357.749 166.796 360.566 168.824 360.398 171.617C360.229 174.41 353.63 176.409 353.63 176.409Z" fill="#2588E3"/>
<path d="M354.407 178.054C354.407 178.054 358.544 157.691 340.685 148.671C340.685 148.671 337.933 152.2 339.01 155.366C340.086 158.532 344.045 158.025 344.101 160.924C344.158 163.822 341.499 167.571 344.504 168.958C347.508 170.345 345.44 173.186 346.479 175.787C347.518 178.389 354.407 178.054 354.407 178.054Z" fill="#2588E3"/>
<path opacity="0.5" d="M354.407 178.054C354.407 178.054 358.544 157.691 340.685 148.671C340.685 148.671 337.933 152.2 339.01 155.366C340.086 158.532 344.045 158.025 344.101 160.924C344.158 163.822 341.499 167.571 344.504 168.958C347.508 170.345 345.44 173.186 346.479 175.787C347.518 178.389 354.407 178.054 354.407 178.054Z" fill="black"/>
<path d="M338.757 173.54C338.757 173.54 339.104 186.931 352.123 186.931C365.143 186.931 365.48 173.54 365.48 173.54H338.757Z" fill="#2588E3"/>
<path opacity="0.5" d="M338.757 173.54C338.757 173.54 339.104 186.931 352.123 186.931C365.143 186.931 365.48 173.54 365.48 173.54H338.757Z" fill="black"/>
<path d="M268.772 85.8011L257.653 71.1191L246.533 85.8011H251.765V104.807H263.54V85.8011H268.772Z" fill="#2588E3"/>
<path d="M301.392 103.066C301.392 95.9629 304.153 89.1508 309.068 84.1283C313.983 79.1057 320.649 76.2841 327.6 76.2841V83.2569C325.056 83.2557 322.537 83.7666 320.186 84.7606C317.836 85.7545 315.7 87.212 313.9 89.0498C312.101 90.8876 310.674 93.0696 309.7 95.4712C308.726 97.8729 308.225 100.447 308.225 103.047L301.392 103.066Z" fill="#2588E3"/>
<path d="M301.392 103.066H308.225C308.225 108.317 310.266 113.353 313.9 117.066C317.533 120.779 322.461 122.865 327.6 122.865C331 122.871 334.34 121.954 337.278 120.206L340.704 126.299C336.72 128.649 332.2 129.887 327.6 129.887C322.999 129.887 318.48 128.649 314.495 126.298C310.511 123.948 307.203 120.567 304.903 116.495C302.603 112.424 301.392 107.805 301.392 103.104V103.066Z" fill="#2588E3"/>
<path opacity="0.5" d="M301.392 103.066H308.225C308.225 108.317 310.266 113.353 313.9 117.066C317.533 120.779 322.461 122.865 327.6 122.865C331 122.871 334.34 121.954 337.278 120.206L340.704 126.299C336.72 128.649 332.2 129.887 327.6 129.887C322.999 129.887 318.48 128.649 314.495 126.298C310.511 123.948 307.203 120.567 304.903 116.495C302.603 112.424 301.392 107.805 301.392 103.104V103.066Z" fill="white"/>
<path d="M327.6 83.2569V76.2649C333.388 76.2423 339.02 78.1781 343.618 81.7703C348.216 85.3625 351.521 90.409 353.017 96.1224C354.514 101.836 354.117 107.895 351.89 113.353C349.662 118.812 345.729 123.364 340.704 126.299L337.288 120.244C341.009 118.079 343.923 114.715 345.575 110.677C347.226 106.64 347.521 102.157 346.414 97.9297C345.307 93.7025 342.86 89.9696 339.455 87.3147C336.051 84.6599 331.882 83.2328 327.6 83.2569Z" fill="#2588E3"/>
<path opacity="0.7" d="M327.6 83.2569V76.2649C333.388 76.2423 339.02 78.1781 343.618 81.7703C348.216 85.3625 351.521 90.409 353.017 96.1224C354.514 101.836 354.117 107.895 351.89 113.353C349.662 118.812 345.729 123.364 340.704 126.299L337.288 120.244C341.009 118.079 343.923 114.715 345.575 110.677C347.226 106.64 347.521 102.157 346.414 97.9297C345.307 93.7025 342.86 89.9696 339.455 87.3147C336.051 84.6599 331.882 83.2328 327.6 83.2569Z" fill="black"/>
<path d="M302.993 37.3455H279.115C278.264 37.3455 277.447 37.6911 276.845 38.3064C276.243 38.9217 275.905 39.7561 275.905 40.6262V85.7438C275.912 86.6089 276.254 87.436 276.855 88.0451C277.456 88.6541 278.269 88.9958 279.115 88.9958H309.676C310.526 88.9933 311.34 88.6465 311.94 88.0315C312.54 87.4165 312.877 86.5835 312.877 85.7151V47.4556L302.993 37.3455Z" fill="#263238"/>
<path d="M301.589 84.5099H281.736C281.364 84.5099 281.007 84.3587 280.743 84.0897C280.48 83.8206 280.332 83.4557 280.332 83.0752C280.335 82.6963 280.484 82.3338 280.747 82.0668C281.01 81.7999 281.365 81.65 281.736 81.65H301.598C301.969 81.65 302.324 81.7999 302.587 82.0668C302.85 82.3338 302.999 82.6963 303.002 83.0752C302.999 83.4565 302.849 83.8214 302.585 84.0902C302.32 84.359 301.962 84.5099 301.589 84.5099Z" fill="#2588E3"/>
<path d="M292.229 44.7391H281.736C281.365 44.7392 281.01 44.5893 280.747 44.3223C280.484 44.0553 280.335 43.6928 280.332 43.314C280.332 42.9335 280.48 42.5686 280.743 42.2995C281.007 42.0304 281.364 41.8793 281.736 41.8793H292.238C292.61 41.8793 292.967 42.0304 293.231 42.2995C293.494 42.5686 293.642 42.9335 293.642 43.314C293.641 43.5024 293.603 43.6887 293.532 43.8623C293.46 44.0359 293.355 44.1934 293.224 44.3257C293.093 44.458 292.937 44.5627 292.767 44.6336C292.596 44.7045 292.413 44.7404 292.229 44.7391Z" fill="#2588E3"/>
<path d="M299.09 50.4207H281.736C281.365 50.4207 281.01 50.2709 280.747 50.0039C280.484 49.7369 280.335 49.3744 280.332 48.9955C280.332 48.615 280.48 48.2501 280.743 47.981C281.007 47.7119 281.364 47.5608 281.736 47.5608H299.099C299.47 47.5633 299.824 47.7156 300.086 47.9844C300.347 48.2532 300.494 48.6167 300.494 48.9955C300.494 49.1835 300.457 49.3696 300.386 49.5431C300.316 49.7167 300.212 49.8742 300.082 50.0067C299.951 50.1391 299.796 50.2439 299.626 50.315C299.456 50.386 299.273 50.422 299.09 50.4207Z" fill="#2588E3"/>
<path d="M307.064 56.1022H281.736C281.365 56.1022 281.01 55.9524 280.747 55.6854C280.484 55.4184 280.335 55.0559 280.332 54.677C280.332 54.2965 280.48 53.9316 280.743 53.6625C281.007 53.3935 281.364 53.2423 281.736 53.2423H307.074C307.446 53.2423 307.803 53.3935 308.066 53.6625C308.33 53.9316 308.478 54.2965 308.478 54.677C308.476 54.8655 308.439 55.0518 308.367 55.2254C308.295 55.3989 308.191 55.5564 308.06 55.6888C307.928 55.8211 307.773 55.9257 307.602 55.9967C307.431 56.0676 307.249 56.1035 307.064 56.1022Z" fill="#2588E3"/>
<path d="M307.064 61.7838H292.332C291.961 61.7838 291.605 61.634 291.342 61.367C291.079 61.1 290.93 60.7375 290.928 60.3586C290.928 59.9781 291.076 59.6132 291.339 59.3441C291.602 59.075 291.959 58.9239 292.332 58.9239H307.064C307.437 58.9239 307.794 59.075 308.057 59.3441C308.32 59.6132 308.468 59.9781 308.468 60.3586C308.466 60.7375 308.317 61.1 308.054 61.367C307.791 61.634 307.435 61.7838 307.064 61.7838Z" fill="#2588E3"/>
<path d="M285.574 61.7838H281.736C281.365 61.7838 281.01 61.6339 280.747 61.3669C280.484 61.0999 280.335 60.7375 280.332 60.3586C280.332 59.9781 280.48 59.6132 280.743 59.3441C281.007 59.075 281.364 58.9239 281.736 58.9239H285.583C285.955 58.9239 286.313 59.075 286.576 59.3441C286.839 59.6132 286.987 59.9781 286.987 60.3586C286.986 60.547 286.948 60.7334 286.877 60.9069C286.805 61.0805 286.7 61.238 286.569 61.3703C286.438 61.5027 286.283 61.6073 286.112 61.6782C285.941 61.7492 285.758 61.785 285.574 61.7838Z" fill="#2588E3"/>
<path d="M307.064 67.4653H281.736C281.364 67.4653 281.007 67.3141 280.743 67.045C280.48 66.776 280.332 66.411 280.332 66.0305C280.335 65.6517 280.484 65.2892 280.747 65.0222C281.01 64.7552 281.365 64.6053 281.736 64.6053H307.074C307.444 64.6053 307.8 64.7552 308.063 65.0222C308.326 65.2892 308.475 65.6517 308.478 66.0305C308.478 66.2197 308.441 66.4071 308.37 66.5818C308.299 66.7565 308.194 66.9151 308.063 67.0484C307.932 67.1818 307.776 67.2873 307.604 67.3588C307.433 67.4303 307.249 67.4665 307.064 67.4653Z" fill="#2588E3"/>
<path d="M297.283 73.1468H281.736C281.364 73.1468 281.007 72.9957 280.743 72.7266C280.48 72.4576 280.332 72.0926 280.332 71.7121C280.335 71.3332 280.484 70.9708 280.747 70.7038C281.01 70.4368 281.365 70.2869 281.736 70.2869H297.292C297.663 70.2869 298.019 70.4368 298.282 70.7038C298.545 70.9708 298.694 71.3332 298.696 71.7121C298.696 71.9013 298.66 72.0887 298.589 72.2634C298.517 72.4381 298.413 72.5967 298.282 72.73C298.15 72.8634 297.995 72.9689 297.823 73.0404C297.652 73.1119 297.468 73.1481 297.283 73.1468Z" fill="#2588E3"/>
<path d="M307.064 73.1468H302.908C302.538 73.1443 302.183 72.992 301.922 72.7232C301.66 72.4544 301.514 72.0909 301.514 71.7121C301.514 71.3341 301.661 70.9716 301.922 70.7043C302.184 70.4371 302.538 70.2869 302.908 70.2869H307.064C307.435 70.2869 307.791 70.4368 308.054 70.7038C308.317 70.9708 308.466 71.3332 308.468 71.7121C308.468 72.0926 308.32 72.4575 308.057 72.7266C307.794 72.9957 307.437 73.1468 307.064 73.1468Z" fill="#2588E3"/>
<path d="M307.064 78.8283H281.736C281.364 78.8283 281.007 78.6771 280.743 78.4081C280.48 78.139 280.332 77.7741 280.332 77.3936C280.335 77.0147 280.484 76.6523 280.747 76.3853C281.01 76.1183 281.365 75.9684 281.736 75.9684H307.074C307.444 75.9684 307.8 76.1183 308.063 76.3853C308.326 76.6523 308.475 77.0147 308.478 77.3936C308.478 77.5828 308.441 77.7701 308.37 77.9448C308.299 78.1195 308.194 78.2781 308.063 78.4115C307.932 78.5448 307.776 78.6503 307.604 78.7218C307.433 78.7934 307.249 78.8295 307.064 78.8283Z" fill="#2588E3"/>
<g opacity="0.5">
<path opacity="0.5" d="M301.589 84.5099H281.736C281.364 84.5099 281.007 84.3587 280.743 84.0897C280.48 83.8206 280.332 83.4557 280.332 83.0752C280.335 82.6963 280.484 82.3338 280.747 82.0668C281.01 81.7999 281.365 81.65 281.736 81.65H301.598C301.969 81.65 302.324 81.7999 302.587 82.0668C302.85 82.3338 302.999 82.6963 303.002 83.0752C302.999 83.4565 302.849 83.8214 302.585 84.0902C302.32 84.359 301.962 84.5099 301.589 84.5099Z" fill="white"/>
</g>
<g opacity="0.5">
<path opacity="0.5" d="M292.229 44.7391H281.736C281.365 44.7392 281.01 44.5893 280.747 44.3223C280.484 44.0553 280.335 43.6928 280.332 43.314C280.332 42.9335 280.48 42.5686 280.743 42.2995C281.007 42.0304 281.364 41.8793 281.736 41.8793H292.238C292.61 41.8793 292.967 42.0304 293.231 42.2995C293.494 42.5686 293.642 42.9335 293.642 43.314C293.641 43.5024 293.603 43.6887 293.532 43.8623C293.46 44.0359 293.355 44.1934 293.224 44.3257C293.093 44.458 292.937 44.5627 292.767 44.6336C292.596 44.7045 292.413 44.7404 292.229 44.7391Z" fill="white"/>
</g>
<g opacity="0.5">
<path opacity="0.5" d="M299.09 50.4207H281.736C281.365 50.4207 281.01 50.2709 280.747 50.0039C280.484 49.7369 280.335 49.3744 280.332 48.9955C280.332 48.615 280.48 48.2501 280.743 47.981C281.007 47.7119 281.364 47.5608 281.736 47.5608H299.099C299.47 47.5633 299.824 47.7156 300.086 47.9844C300.347 48.2532 300.494 48.6167 300.494 48.9955C300.494 49.1835 300.457 49.3696 300.386 49.5431C300.316 49.7167 300.212 49.8742 300.082 50.0067C299.951 50.1391 299.796 50.2439 299.626 50.315C299.456 50.386 299.273 50.422 299.09 50.4207Z" fill="white"/>
</g>
<g opacity="0.5">
<path opacity="0.5" d="M307.064 56.1022H281.736C281.365 56.1022 281.01 55.9524 280.747 55.6854C280.484 55.4184 280.335 55.0559 280.332 54.677C280.332 54.2965 280.48 53.9316 280.743 53.6625C281.007 53.3935 281.364 53.2423 281.736 53.2423H307.074C307.446 53.2423 307.803 53.3935 308.066 53.6625C308.33 53.9316 308.478 54.2965 308.478 54.677C308.476 54.8655 308.439 55.0518 308.367 55.2254C308.295 55.3989 308.191 55.5564 308.06 55.6888C307.928 55.8211 307.773 55.9257 307.602 55.9967C307.431 56.0676 307.249 56.1035 307.064 56.1022Z" fill="white"/>
</g>
<g opacity="0.5">
<path opacity="0.5" d="M307.064 61.7838H292.332C291.961 61.7838 291.605 61.634 291.342 61.367C291.079 61.1 290.93 60.7375 290.928 60.3586C290.928 59.9781 291.076 59.6132 291.339 59.3441C291.602 59.075 291.959 58.9239 292.332 58.9239H307.064C307.437 58.9239 307.794 59.075 308.057 59.3441C308.32 59.6132 308.468 59.9781 308.468 60.3586C308.466 60.7375 308.317 61.1 308.054 61.367C307.791 61.634 307.435 61.7838 307.064 61.7838Z" fill="white"/>
</g>
<g opacity="0.5">
<path opacity="0.5" d="M285.574 61.7838H281.736C281.365 61.7838 281.01 61.6339 280.747 61.3669C280.484 61.0999 280.335 60.7375 280.332 60.3586C280.332 59.9781 280.48 59.6132 280.743 59.3441C281.007 59.075 281.364 58.9239 281.736 58.9239H285.583C285.955 58.9239 286.313 59.075 286.576 59.3441C286.839 59.6132 286.987 59.9781 286.987 60.3586C286.986 60.547 286.948 60.7334 286.877 60.9069C286.805 61.0805 286.7 61.238 286.569 61.3703C286.438 61.5027 286.283 61.6073 286.112 61.6782C285.941 61.7492 285.758 61.785 285.574 61.7838Z" fill="white"/>
</g>
<g opacity="0.5">
<path opacity="0.5" d="M307.064 67.4653H281.736C281.364 67.4653 281.007 67.3141 280.743 67.045C280.48 66.776 280.332 66.411 280.332 66.0305C280.335 65.6517 280.484 65.2892 280.747 65.0222C281.01 64.7552 281.365 64.6053 281.736 64.6053H307.074C307.444 64.6053 307.8 64.7552 308.063 65.0222C308.326 65.2892 308.475 65.6517 308.478 66.0305C308.478 66.2197 308.441 66.4071 308.37 66.5818C308.299 66.7565 308.194 66.9151 308.063 67.0484C307.932 67.1818 307.776 67.2873 307.604 67.3588C307.433 67.4303 307.249 67.4665 307.064 67.4653Z" fill="white"/>
</g>
<g opacity="0.5">
<path opacity="0.5" d="M297.283 73.1468H281.736C281.364 73.1468 281.007 72.9957 280.743 72.7266C280.48 72.4576 280.332 72.0926 280.332 71.7121C280.335 71.3332 280.484 70.9708 280.747 70.7038C281.01 70.4368 281.365 70.2869 281.736 70.2869H297.292C297.663 70.2869 298.019 70.4368 298.282 70.7038C298.545 70.9708 298.694 71.3332 298.696 71.7121C298.696 71.9013 298.66 72.0887 298.589 72.2634C298.517 72.4381 298.413 72.5967 298.282 72.73C298.15 72.8634 297.995 72.9689 297.823 73.0404C297.652 73.1119 297.468 73.1481 297.283 73.1468Z" fill="white"/>
</g>
<g opacity="0.5">
<path opacity="0.5" d="M307.064 73.1468H302.908C302.538 73.1443 302.183 72.992 301.922 72.7232C301.66 72.4544 301.514 72.0909 301.514 71.7121C301.514 71.3341 301.661 70.9716 301.922 70.7043C302.184 70.4371 302.538 70.2869 302.908 70.2869H307.064C307.435 70.2869 307.791 70.4368 308.054 70.7038C308.317 70.9708 308.466 71.3332 308.468 71.7121C308.468 72.0926 308.32 72.4575 308.057 72.7266C307.794 72.9957 307.437 73.1468 307.064 73.1468Z" fill="white"/>
</g>
<g opacity="0.5">
<path opacity="0.5" d="M307.064 78.8283H281.736C281.364 78.8283 281.007 78.6771 280.743 78.4081C280.48 78.139 280.332 77.7741 280.332 77.3936C280.335 77.0147 280.484 76.6523 280.747 76.3853C281.01 76.1183 281.365 75.9684 281.736 75.9684H307.074C307.444 75.9684 307.8 76.1183 308.063 76.3853C308.326 76.6523 308.475 77.0147 308.478 77.3936C308.478 77.5828 308.441 77.7701 308.37 77.9448C308.299 78.1195 308.194 78.2781 308.063 78.4115C307.932 78.5448 307.776 78.6503 307.604 78.7218C307.433 78.7934 307.249 78.8295 307.064 78.8283Z" fill="white"/>
</g>
<path d="M302.993 37.3455V44.1749C302.991 44.606 303.074 45.0332 303.235 45.4318C303.395 45.8305 303.632 46.1926 303.93 46.4975C304.229 46.8024 304.583 47.044 304.973 47.2085C305.363 47.3729 305.781 47.4569 306.203 47.4556H312.877L302.993 37.3455Z" fill="#2588E3"/>
<path opacity="0.5" d="M302.993 37.3455V44.1749C302.991 44.606 303.074 45.0332 303.235 45.4318C303.395 45.8305 303.632 46.1926 303.93 46.4975C304.229 46.8024 304.583 47.044 304.973 47.2085C305.363 47.3729 305.781 47.4569 306.203 47.4556H312.877L302.993 37.3455Z" fill="white"/>
</svg>
