<svg width="32" height="32" viewBox="0 0 32 32" fill="none" xmlns="http://www.w3.org/2000/svg">
<path d="M26.333 0.400883H5.666C4.92154 0.399962 4.18421 0.545914 3.49624 0.830382C2.80827 1.11485 2.18318 1.53224 1.65677 2.05865C1.13036 2.58507 0.712965 3.21016 0.428497 3.89813C0.14403 4.58609 -0.00192212 5.32342 -0.00100084 6.06788V25.9319C-0.00192212 26.6763 0.14403 27.4137 0.428497 28.1016C0.712965 28.7896 1.13036 29.4147 1.65677 29.9411C2.18318 30.4675 2.80827 30.8849 3.49624 31.1694C4.18421 31.4539 4.92154 31.5998 5.666 31.5989H26.333C27.0775 31.5998 27.8148 31.4539 28.5028 31.1694C29.1907 30.8849 29.8158 30.4675 30.3422 29.9411C30.8686 29.4147 31.286 28.7896 31.5705 28.1016C31.855 27.4137 32.0009 26.6763 32 25.9319V6.06788C32.0009 5.32342 31.855 4.58609 31.5705 3.89813C31.286 3.21016 30.8686 2.58507 30.3422 2.05865C29.8158 1.53224 29.1907 1.11485 28.5028 0.830382C27.8148 0.545914 27.0775 0.399962 26.333 0.400883ZM30.651 25.4119C30.6547 26.0477 30.5327 26.678 30.292 27.2665C30.0513 27.855 29.6966 28.3901 29.2484 28.8411C28.8002 29.2921 28.2673 29.65 27.6803 29.8944C27.0933 30.1387 26.4638 30.2646 25.828 30.2649H6.172C4.88918 30.263 3.65944 29.7526 2.75235 28.8455C1.84527 27.9384 1.33485 26.7087 1.333 25.4259V6.57288C1.33485 5.29007 1.84527 4.06033 2.75235 3.15324C3.65944 2.24615 4.88918 1.73573 6.172 1.73388H25.812C27.0953 1.73415 28.326 2.24406 29.2334 3.15149C30.1408 4.05892 30.6507 5.28958 30.651 6.57288V25.4119ZM12.651 14.9999L16.386 22.1719C16.454 22.2809 16.413 22.3849 16.307 22.3849H13.984C13.839 22.3849 13.771 22.3489 13.708 22.2129C12.855 20.4529 11.984 18.6929 11.093 16.8019H11.068C10.2481 18.6228 9.40235 20.432 8.531 22.2289C8.47 22.3329 8.402 22.3739 8.292 22.3739H6.093C5.958 22.3739 5.948 22.2649 6.016 22.1869L9.667 15.2279L6.136 8.18688C6.052 8.07788 6.136 7.99888 6.213 7.99888H8.505C8.64 7.99888 8.693 8.02588 8.745 8.14388C9.59594 9.91783 10.4277 11.7009 11.24 13.4929H11.265C12.041 11.7329 12.896 9.90488 13.718 8.15988C13.786 8.05088 13.827 7.98288 13.958 7.98288H16.103C16.212 7.98288 16.254 8.06688 16.187 8.17088L12.651 14.9999ZM17.041 17.1719C17.041 14.0679 19.104 11.6399 22.385 11.6399C22.666 11.6399 22.812 11.6399 23.078 11.6669V8.13588C23.078 8.05188 23.145 7.99988 23.213 7.99988H25.317C25.426 7.99988 25.453 8.04088 25.453 8.10388V20.3489C25.453 20.7079 25.453 21.1609 25.521 21.6499C25.521 21.7339 25.494 21.7589 25.412 21.8019C24.3458 22.3085 23.1804 22.5718 22 22.5729C19.104 22.5879 17.041 20.8019 17.041 17.1719ZM23.079 13.7599C22.8327 13.6658 22.5706 13.6199 22.307 13.6249C20.626 13.6249 19.454 14.9209 19.454 17.0679C19.454 19.5209 20.651 20.5049 22.162 20.5049C22.479 20.5049 22.829 20.4689 23.079 20.3599V13.7599Z" fill="#571B61"/>
</svg>
