<svg width="25" height="35" viewBox="0 0 25 35" fill="none" xmlns="http://www.w3.org/2000/svg">
<path d="M12.4848 34.9115L2.31074 32.1074L0.043457 6.86084H24.9565L22.6869 32.1035L12.4848 34.9115Z" fill="#264DE4"/>
<path d="M20.7438 30.4963L22.6833 8.92529H12.5V32.7653L20.7438 30.4963Z" fill="#2965F1"/>
<path d="M5.24112 18.2888L5.52061 21.3852H12.5V18.2888H5.24112Z" fill="#EBEBEB"/>
<path d="M4.67941 12.0215L4.96291 15.1179H12.5V12.0215H4.67941Z" fill="#EBEBEB"/>
<path d="M12.5 26.3304L12.4863 26.334L9.01288 25.4028L8.7908 22.9333H5.65994L6.09686 27.7951L12.4856 29.5558L12.5 29.5519V26.3304Z" fill="#EBEBEB"/>
<path d="M5.90665 0H9.68399V1.56831H7.48633V3.13662H9.68419V4.70483H5.90665V0Z" fill="black"/>
<path d="M10.4396 0H14.217V1.36374H12.0192V1.63647H14.217V4.77309H10.4396V3.341H12.6374V3.06827H10.4395V0H10.4396Z" fill="black"/>
<path d="M14.9726 0H18.75V1.36374H16.5523V1.63647H18.75V4.77309H14.9726V3.341H17.1703V3.06827H14.9727V0H14.9726Z" fill="black"/>
<path d="M19.739 18.2886L20.302 12.0215H12.4893V15.1179H16.884L16.6002 18.2886H12.4893V21.385H16.3298L15.9677 25.4008L12.4892 26.3329V29.5543L18.883 27.795L18.9299 27.2719L19.6629 19.1201L19.739 18.2886Z" fill="white"/>
</svg>
