<svg width="52" height="52" viewBox="0 0 52 52" fill="none" xmlns="http://www.w3.org/2000/svg">
<path d="M26 28.2316C28.136 28.2316 29.8675 26.5 29.8675 24.3641C29.8675 22.2281 28.136 20.4966 26 20.4966C23.864 20.4966 22.1325 22.2281 22.1325 24.3641C22.1325 26.5 23.864 28.2316 26 28.2316Z" fill="black"/>
<path d="M15.171 32.0536L14.3151 31.8347C7.95814 30.2292 4.31165 27.4992 4.31165 24.3554C4.31165 21.2094 7.96031 18.4816 14.3151 16.8761L15.171 16.6594L15.4115 17.5066C16.054 19.7246 16.8772 21.8862 17.8728 23.9697L18.057 24.3554L17.8728 24.7411C16.8761 26.8276 16.0506 28.9899 15.4115 31.2086L15.171 32.0536ZM13.9208 18.8477C9.09131 20.2084 6.12515 22.2841 6.12515 24.3554C6.12515 26.4224 9.08915 28.5002 13.9208 29.8587C14.5123 27.9781 15.2273 26.1386 16.055 24.3554C15.2213 22.5693 14.5083 20.7292 13.9208 18.8477ZM36.8268 32.0536L36.5885 31.2042C35.9443 28.9858 35.1204 26.8235 34.125 24.7389L33.9408 24.3554L34.125 23.9676C35.1216 21.8854 35.9428 19.7209 36.5885 17.5022L36.8268 16.6572L37.6826 16.8739C44.0418 18.4794 47.6861 21.2072 47.6861 24.3554C47.6861 27.5014 44.0396 30.2292 37.6826 31.8347L36.8268 32.0536ZM35.9385 24.3554C36.8051 26.2317 37.5266 28.0777 38.077 29.8587C42.9086 28.5002 45.8748 26.4224 45.8748 24.3554C45.8748 22.2841 42.9108 20.2106 38.077 18.8477C37.4861 20.7287 36.7717 22.5685 35.9385 24.3554Z" fill="black"/>
<path d="M13.9078 18.8392L13.6695 17.9942C11.8798 11.6936 12.4215 7.18041 15.158 5.60741C17.8338 4.05825 22.139 5.88908 26.6478 10.5149L27.2632 11.1476L26.6478 11.7781C25.0464 13.4436 23.5827 15.2362 22.2712 17.1384L22.0263 17.4894L21.6017 17.5241C19.2954 17.7052 17.0078 18.074 14.7615 18.6269L13.9078 18.8392ZM17.3355 6.85974C16.8502 6.85974 16.4212 6.96591 16.0593 7.17391C14.2653 8.20741 13.949 11.8062 15.184 16.6639C17.1145 16.2371 19.0623 15.9316 21.0253 15.7604C22.1618 14.1485 23.4015 12.612 24.7368 11.1606C21.9137 8.41541 19.2487 6.85974 17.3355 6.85974ZM34.6623 43.6584C32.0883 43.6584 28.782 41.7171 25.35 38.1941L24.7368 37.5636L25.35 36.9352C26.9517 35.2671 28.4161 33.4723 29.7288 31.5684L29.9715 31.2217L30.3918 31.1806C32.6989 31.0027 34.9874 30.6352 37.2342 30.0821L38.09 29.8654L38.3305 30.7126C40.1115 37.0089 39.572 41.5286 36.8398 43.1016C36.1765 43.4776 35.4248 43.6698 34.6623 43.6584ZM27.2632 37.5484C30.0842 40.2936 32.7513 41.8514 34.6623 41.8514C35.1498 41.8514 35.5788 41.7431 35.9385 41.5372C37.7347 40.5016 38.0532 36.8962 36.8138 32.0386C34.8855 32.4676 32.9355 32.7752 30.9682 32.9464C29.8365 34.5608 28.5988 36.0982 27.2632 37.5484Z" fill="black"/>
<path d="M38.09 18.8391L37.2342 18.6246C34.9875 18.07 32.699 17.7011 30.3918 17.5217L29.9715 17.4849L29.7288 17.1339C28.4179 15.2307 26.9534 13.4379 25.35 11.7736L24.7368 11.1431L25.35 10.5147C29.8567 5.89106 34.1597 4.06022 36.8398 5.60722C39.5742 7.18239 40.118 11.6956 38.3305 17.9941L38.09 18.8391ZM30.9682 15.7602C33.0352 15.9444 34.9938 16.2542 36.8138 16.6637C38.051 11.8061 37.7347 8.20722 35.9385 7.17156C34.1532 6.13806 30.7927 7.71972 27.2632 11.1604C28.5978 12.6121 29.8372 14.1461 30.9682 15.7602ZM17.3355 43.6582C16.5731 43.6691 15.8216 43.4769 15.158 43.1014C12.4215 41.5284 11.8798 37.0109 13.6673 30.7124L13.9013 29.8652L14.7572 30.0819C16.8458 30.6084 19.1468 30.9789 21.5995 31.1804L22.0198 31.2216L22.2647 31.5682C23.5733 33.4706 25.038 35.2667 26.6413 36.9351L27.2567 37.5634L26.6413 38.1939C23.2115 41.7191 19.9052 43.6582 17.3355 43.6582ZM15.184 32.0406C13.949 36.8982 14.2653 40.5036 16.0593 41.5392C17.8468 42.5576 21.1965 40.9867 24.7368 37.5482C23.4021 36.0963 22.1623 34.5599 21.0253 32.9484C19.0604 32.7746 17.109 32.4713 15.184 32.0406Z" fill="black"/>
<path d="M26 33.1782C24.5115 33.1782 22.984 33.1154 21.45 32.9875L21.0253 32.9507L20.7805 32.5997C19.9155 31.3558 19.1016 30.0772 18.3408 28.7669C17.5857 27.4531 16.8839 26.1094 16.237 24.739L16.055 24.3555L16.237 23.9677C16.8848 22.5984 17.5847 21.255 18.3408 19.942C19.0927 18.6507 19.9138 17.3594 20.7805 16.107L21.0253 15.7604L21.45 15.7214C24.4766 15.4679 27.5191 15.4679 30.5457 15.7214L30.966 15.7625L31.2108 16.1092C32.9437 18.5982 34.4657 21.2275 35.7608 23.9699L35.9407 24.3577L35.7608 24.7412C34.4693 27.4854 32.9471 30.1151 31.2108 32.6019L30.966 32.9529L30.5457 32.9897C29.016 33.1132 27.4863 33.1782 26 33.1782ZM22.0263 31.2195C24.7022 31.421 27.2978 31.421 29.9715 31.2195C31.4641 29.0338 32.7909 26.7394 33.9408 24.3555C32.795 21.9695 31.468 19.6748 29.9715 17.4915C27.327 17.2879 24.6708 17.2879 22.0263 17.4915C20.5286 19.674 19.2015 21.9688 18.057 24.3555C19.2094 26.7381 20.5361 29.0323 22.0263 31.2195Z" fill="black"/>
</svg>
