<svg width="26" height="26" viewBox="0 0 26 26" fill="none" xmlns="http://www.w3.org/2000/svg">
<path d="M0 0H26V26H0V0Z" fill="#F7DF1E"/>
<path d="M6.83641 21.7274L8.82602 20.5233C9.20992 21.2039 9.5591 21.7798 10.3967 21.7798C11.1995 21.7798 11.7058 21.4657 11.7058 20.2441V11.9365H14.1491V20.2787C14.1491 22.8093 12.6657 23.9612 10.5014 23.9612C8.54682 23.9612 7.41227 22.9489 6.8363 21.7272" fill="black"/>
<path d="M15.4762 21.4655L17.4656 20.3137C17.9894 21.1689 18.67 21.7972 19.8742 21.7972C20.8866 21.7972 21.5322 21.291 21.5322 20.5929C21.5322 19.7552 20.869 19.4584 19.752 18.9699L19.1413 18.7079C17.3785 17.9576 16.2092 17.0151 16.2092 15.0255C16.2092 13.1929 17.6054 11.7966 19.787 11.7966C21.3403 11.7966 22.4573 12.3378 23.2601 13.7514L21.3576 14.9732C20.9386 14.2228 20.4851 13.9261 19.7869 13.9261C19.0713 13.9261 18.6175 14.3799 18.6175 14.9732C18.6175 15.7062 19.0713 16.003 20.1184 16.4568L20.7292 16.7186C22.8062 17.6087 23.9755 18.5162 23.9755 20.558C23.9755 22.7573 22.2477 23.9614 19.9265 23.9614C17.6577 23.9614 16.1916 22.8793 15.4761 21.4656" fill="black"/>
</svg>
