<svg width="33" height="47" viewBox="0 0 33 47" fill="none" xmlns="http://www.w3.org/2000/svg">
<path d="M32.9426 9.21313L29.9467 43.1104L16.4799 46.8811L3.05016 43.1156L0.0573425 9.21313H32.9426Z" fill="#E44D26"/>
<path d="M16.5 43.9991L27.3819 40.9522L29.942 11.9854H16.5V43.9991Z" fill="#F16529"/>
<path d="M10.676 20.3013H16.5V16.1433H6.17682L6.2753 17.2588L7.28722 28.7172H16.5V24.5592H11.0523L10.676 20.3013Z" fill="#EBEBEB"/>
<path d="M11.6039 30.7964H7.47113L8.04786 37.3251L16.481 39.6894L16.5 39.6842V35.3581L16.4819 35.3629L11.897 34.1126L11.6039 30.7964Z" fill="#EBEBEB"/>
<path d="M3.11697 0H5.20912V2.08766H7.12299V0H9.21527V6.32195H7.12312V4.205H5.20925V6.32195H3.1171V0H3.11697Z" fill="black"/>
<path d="M11.9664 2.09651H10.1248V0H15.9016V2.09651H14.0589V6.32195H11.9668V2.09651H11.9666H11.9664Z" fill="black"/>
<path d="M16.8184 0H18.9999L20.3418 2.22137L21.6824 0H23.8648V6.32195H21.7811V3.18845L20.3418 5.43624H20.3057L18.8654 3.18845V6.32195H16.8184V0Z" fill="black"/>
<path d="M24.906 0H26.9988V4.23234H29.9409V6.32195H24.9059V0H24.906Z" fill="black"/>
<path d="M16.4858 28.7173H21.5553L21.0773 34.11L16.4857 35.3616V39.6875L24.9256 37.3251L24.9874 36.6226L25.955 25.6759L26.0554 24.5593H16.4858V28.7173Z" fill="white"/>
<path d="M16.4858 20.2912V20.3013H26.43L26.5125 19.3668L26.7002 17.2588L26.7986 16.1433H16.4858V20.2913V20.2912Z" fill="white"/>
</svg>
