<svg width="42" height="42" viewBox="0 0 42 42" fill="none" xmlns="http://www.w3.org/2000/svg">
<path d="M4.15668 4.61621H37.8433V37.3841H4.15668V4.61621Z" fill="#0C0824"/>
<path d="M4.15669 4.61616H37.8433V37.384H4.15669V4.61616ZM2.625 38.9157H39.375V3.08447H2.625V38.9157ZM27.4011 17.7845C26.1909 17.7845 25.7775 18.3974 25.7775 18.9027C25.7775 19.454 26.0531 19.8372 27.6767 20.6785C30.0812 21.8427 30.8267 22.9597 30.8267 24.599C30.8267 27.0494 28.959 28.3658 26.4324 28.3658C25.3481 28.406 24.2704 28.1807 23.2929 27.7096C23.1853 27.6637 23.1709 27.5875 23.1709 27.4642V25.2106C23.1709 25.057 23.247 25.0111 23.3546 25.0885C24.2726 25.6788 25.3411 25.9923 26.4324 25.9915C27.6426 25.9915 28.1479 25.4862 28.1479 24.7972C28.1479 24.2459 27.7961 23.7563 26.2487 22.9597C24.0739 21.9188 23.1709 20.8597 23.1709 19.1009C23.1709 17.1256 24.717 15.4876 27.3971 15.4876C28.33 15.4475 29.2616 15.5934 30.1376 15.9168C30.1881 15.9495 30.2289 15.9951 30.2559 16.0489C30.2829 16.1026 30.2951 16.1626 30.2912 16.2226V18.3226C30.2912 18.4447 30.2151 18.5221 30.0615 18.4762C29.2519 18.0101 28.3312 17.772 27.3971 17.7871L27.4011 17.7845ZM14.2314 19.6062C14.5832 19.6364 14.8588 19.6364 15.4718 19.6364C17.2633 19.6364 18.9473 19.009 18.9473 16.5743C18.9473 14.6292 17.7371 13.6501 15.7014 13.6501C15.0885 13.6501 14.5071 13.6803 14.2314 13.696V19.6062ZM11.5054 11.4687C11.5054 11.3611 11.7193 11.285 11.8427 11.285C13.1589 11.2312 14.476 11.2058 15.7933 11.2088C20.0353 11.2088 21.6891 13.5359 21.6891 16.5074C21.6891 20.3963 18.8711 22.0658 15.4114 22.0658C14.8299 22.0658 14.6304 22.0357 14.217 22.0357V27.9157C14.217 28.0377 14.1711 28.0994 14.0333 28.0994H11.6904C11.5684 28.0994 11.5067 28.0535 11.5067 27.9157V11.4753L11.5054 11.4687Z" fill="#31C5F0"/>
</svg>
