<svg width="59" height="59" viewBox="0 0 59 59" fill="none" xmlns="http://www.w3.org/2000/svg">
<path d="M36.5293 16.9566H48.0239V19.7453H36.5293V16.9566ZM25.0116 27.9903C27.5525 26.7745 28.8835 24.925 28.8835 22.0672C28.8835 16.415 24.6774 15.0437 19.8203 15.0437H6.45312V43.4144H20.1948C25.3458 43.4144 30.1799 40.9368 30.1799 35.1751C30.1799 31.6144 28.4975 28.9813 25.0116 27.9903V27.9903ZM12.6873 19.8835H18.5354C20.7883 19.8835 22.8106 20.5116 22.8106 23.1274C22.8106 25.5358 21.2377 26.5037 19.0079 26.5037H12.6873V19.8835ZM19.3421 38.5976H12.6815V30.7847H19.4746C22.2172 30.7847 23.9515 31.9313 23.9515 34.8352C23.9515 37.693 21.883 38.5976 19.3421 38.5976V38.5976ZM52.5181 33.4408C52.5181 27.3622 48.9631 22.2977 42.533 22.2977C36.2815 22.2977 32.0294 27.005 32.0294 33.1758C32.0294 39.5713 36.0568 43.9617 42.533 43.9617C47.4362 43.9617 50.6109 41.755 52.1378 37.0477H47.1654C46.6238 38.805 44.4229 39.7269 42.7116 39.7269C39.4044 39.7269 37.6759 37.7909 37.6759 34.501H52.4777C52.495 34.1611 52.5181 33.8038 52.5181 33.4408V33.4408ZM37.6759 30.9403C37.8545 28.238 39.6579 26.5498 42.3544 26.5498C45.1892 26.5498 46.6065 28.215 46.8543 30.9403H37.6759Z" fill="white"/>
</svg>
