<svg width="44" height="44" viewBox="0 0 44 44" fill="none" xmlns="http://www.w3.org/2000/svg">
<path d="M34.375 33.4584V15.1251H16.0417V13.9792C16.0417 12.0836 17.5835 10.5417 19.4792 10.5417H22.9167V3.66675H19.4792C16.7452 3.67014 14.1241 4.75773 12.1909 6.69096C10.2576 8.62419 9.17006 11.2452 9.16667 13.9792V15.1251H4.58333V22.0001H9.16667V33.4584H4.58333V40.3334H20.625V33.4584H16.0417V22.0001H27.5642V33.4584H22.9167V40.3334H38.9583V33.4584H34.375Z" fill="white"/>
<path d="M30.9375 10.5417C32.836 10.5417 34.375 9.00273 34.375 7.10425C34.375 5.20577 32.836 3.66675 30.9375 3.66675C29.039 3.66675 27.5 5.20577 27.5 7.10425C27.5 9.00273 29.039 10.5417 30.9375 10.5417Z" fill="white"/>
</svg>
