<svg width="50" height="50" viewBox="0 0 50 50" fill="none" xmlns="http://www.w3.org/2000/svg">
<path d="M43.0417 14.5417C41.2237 11.3912 38.6073 8.77552 35.4562 6.95841C32.2625 5.098 28.7771 4.16675 25 4.16675C21.2229 4.16675 17.7375 5.098 14.5417 6.95841C11.3479 8.81883 8.81875 11.348 6.95833 14.5417C5.09791 17.7355 4.16666 21.223 4.16666 25.0001C4.16666 28.7772 5.09583 32.2647 6.95833 35.4584C8.77567 38.6095 11.3922 41.2253 14.5437 43.0418C17.7375 44.9022 21.2229 45.8334 25 45.8334C28.7771 45.8334 32.2625 44.9022 35.4583 43.0418C38.6094 41.2246 41.2258 38.609 43.0438 35.4584C44.9042 32.2647 45.8333 28.7772 45.8333 25.0001C45.8333 21.223 44.9042 17.7355 43.0417 14.5417ZM25 7.62508C29.1667 7.62508 32.8583 8.95842 36.0833 11.623C34.1667 14.0688 31.3208 16.0813 27.5417 17.6647C25.4542 13.8876 23.1917 10.7334 20.7479 8.20633C22.1329 7.82338 23.563 7.62789 25 7.62508ZM11.4792 14.1667C13.0026 12.2322 14.9301 10.6538 17.1271 9.54175C19.6521 12.0438 21.9708 15.1667 24.0854 18.9167C19.9187 20.1667 15.5146 20.7917 10.875 20.7917C9.68125 20.7917 8.77916 20.7647 8.16666 20.7084C8.80515 18.3217 9.93323 16.094 11.4792 14.1667ZM7.625 25.0001C7.625 24.8876 7.63125 24.7501 7.64583 24.5834C7.66041 24.4167 7.66666 24.2793 7.66666 24.1667C8.19583 24.1959 9.00208 24.2084 10.0854 24.2084C15.6396 24.2084 20.8062 23.4438 25.5833 21.9167C25.9729 22.6938 26.3771 23.5688 26.7917 24.5417C24.0417 25.1522 21.2208 26.6376 18.3312 29.0001C15.4417 31.3626 13.3333 33.848 12 36.4584C9.08333 33.1522 7.625 29.3334 7.625 25.0001ZM25 42.3751C21.0542 42.3751 17.5125 41.1522 14.3729 38.7105C15.625 36.2376 17.5479 33.873 20.1458 31.6251C22.7417 29.3751 25.3187 27.973 27.875 27.4167C29.4875 31.873 30.5781 36.5011 31.125 41.2084C29.1726 41.9713 27.0961 42.3668 25 42.3751ZM39.75 34.1251C38.3864 36.322 36.5502 38.1874 34.375 39.5855C33.875 35.2522 32.9167 31.0293 31.5021 26.9167C33.4438 26.7792 35.1792 26.7084 36.7104 26.7084C38.375 26.7084 40.2229 26.7792 42.25 26.9167C41.978 29.4789 41.1228 31.9447 39.75 34.1251ZM37.1667 23.7084C34.75 23.7084 32.5146 23.8063 30.4583 24.0001C30.0228 22.86 29.5503 21.7344 29.0417 20.6251C33.3458 18.7376 36.4 16.4459 38.2063 13.7501C40.7063 16.6959 42.0687 20.0563 42.2896 23.8334C40.5979 23.7501 38.8896 23.7084 37.1667 23.7084Z" fill="white"/>
</svg>
