<svg width="1440" height="187" viewBox="0 0 1440 187" fill="none" xmlns="http://www.w3.org/2000/svg">
<path fill-rule="evenodd" clip-rule="evenodd" d="M0 164.614L34.8 172.453C68.4 180.292 136.8 195.969 205.2 180.292C274.8 164.614 343.2 117.582 411.6 109.743C480 101.904 548.4 133.259 616.8 129.34C685.2 125.42 754.8 86.2266 823.2 86.2266C891.6 86.2266 960 125.42 1028.4 141.098C1096.8 156.776 1165.2 148.937 1234.8 145.017C1303.2 141.098 1371.6 141.098 1405.2 141.098H1440V0H1405.2C1371.6 0 1303.2 0 1234.8 0C1165.2 0 1096.8 0 1028.4 0C960 0 891.6 0 823.2 0C754.8 0 685.2 0 616.8 0C548.4 0 480 0 411.6 0C343.2 0 274.8 0 205.2 0C136.8 0 68.4 0 34.8 0H0V164.614Z" fill="#1372C9"/>
</svg>
