<svg width="1440" height="174" viewBox="0 0 1440 174" fill="none" xmlns="http://www.w3.org/2000/svg">
<path fill-rule="evenodd" clip-rule="evenodd" d="M1440 0L1416 9.66667C1392 19.3333 1344 38.6667 1296 51.5556C1248 64.4444 1200 70.8889 1152 74.1111C1104 77.3333 1056 77.3333 1008 64.4444C960 51.5556 912 25.7778 864 12.8889C816 0 768 0 720 19.3333C672 38.6667 624 77.3333 576 96.6667C528 116 480 116 432 109.556C384 103.111 336 90.2222 288 80.5555C240 70.8889 192 64.4444 144 67.6667C96 70.8889 48 83.7778 24 90.2222L0 96.6667V174H24C48 174 96 174 144 174C192 174 240 174 288 174C336 174 384 174 432 174C480 174 528 174 576 174C624 174 672 174 720 174C768 174 816 174 864 174C912 174 960 174 1008 174C1056 174 1104 174 1152 174C1200 174 1248 174 1296 174C1344 174 1392 174 1416 174H1440V0Z" fill="#EAEAEA"/>
</svg>
