<svg width="1440" height="166" viewBox="0 0 1440 166" fill="none" xmlns="http://www.w3.org/2000/svg">
<path fill-rule="evenodd" clip-rule="evenodd" d="M0 153.031L34.8 144.529C68.4 136.028 136.8 119.024 205.2 102.021C274.8 85.0172 343.2 68.0137 411.6 89.268C480 110.522 548.4 170.034 616.8 165.784C685.2 161.533 754.8 93.5189 823.2 80.7663C891.6 68.0137 960 110.522 1028.4 123.275C1096.8 136.028 1165.2 119.024 1234.8 119.024C1303.2 119.024 1371.6 136.028 1405.2 144.529L1440 153.031V0H1405.2C1371.6 0 1303.2 0 1234.8 0C1165.2 0 1096.8 0 1028.4 0C960 0 891.6 0 823.2 0C754.8 0 685.2 0 616.8 0C548.4 0 480 0 411.6 0C343.2 0 274.8 0 205.2 0C136.8 0 68.4 0 34.8 0H0V153.031Z" fill="#EAEAEA"/>
</svg>
