<svg width="1440" height="188" viewBox="0 0 1440 188" fill="none" xmlns="http://www.w3.org/2000/svg">
<path fill-rule="evenodd" clip-rule="evenodd" d="M0 94.1663H34C69 94.1663 137 94.1663 206 109.378C274 125.314 343 156.461 411 156.461C480 156.461 549 125.314 617 104.307C686 83.301 754 73.16 823 94.1663C891 114.448 960 166.602 1029 182.538C1097 198.474 1166 177.467 1234 146.32C1303 114.448 1371 73.16 1406 52.1537L1440 31.1473V0H1406C1371 0 1303 0 1234 0C1166 0 1097 0 1029 0C960 0 891 0 823 0C754 0 686 0 617 0C549 0 480 0 411 0C343 0 274 0 206 0C137 0 69 0 34 0H0V94.1663Z" fill="white"/>
</svg>
