<svg width="1440" height="159" viewBox="0 0 1440 159" fill="none" xmlns="http://www.w3.org/2000/svg">
<path fill-rule="evenodd" clip-rule="evenodd" d="M0 101.126L21.6 111.239C43.2 121.351 87.6 141.576 130.8 134.835C174 128.093 218.4 94.3842 261.6 74.159C306 53.9338 349.2 47.1921 392.4 57.3047C436.8 67.4173 480 94.3842 523.2 91.0133C567.6 87.6425 610.8 53.9338 654 64.0464C698.4 74.159 741.6 128.093 786 148.318C829.2 168.543 872.4 155.06 916.8 148.318C960 141.576 1003.2 141.576 1047.6 128.093C1090.8 114.609 1134 87.6425 1178.4 77.5299C1221.6 67.4173 1266 74.159 1309.2 74.159C1352.4 74.159 1396.8 67.4173 1418.4 64.0464L1440 60.6756V1.333e-06H1418.4C1396.8 1.333e-06 1352.4 1.333e-06 1309.2 1.333e-06C1266 1.333e-06 1221.6 1.333e-06 1178.4 1.333e-06C1134 1.333e-06 1090.8 1.333e-06 1047.6 1.333e-06C1003.2 1.333e-06 960 1.333e-06 916.8 1.333e-06C872.4 1.333e-06 829.2 1.333e-06 786 1.333e-06C741.6 1.333e-06 698.4 1.333e-06 654 1.333e-06C610.8 1.333e-06 567.6 1.333e-06 523.2 1.333e-06C480 1.333e-06 436.8 1.333e-06 392.4 1.333e-06C349.2 1.333e-06 306 1.333e-06 261.6 1.333e-06C218.4 1.333e-06 174 1.333e-06 130.8 1.333e-06C87.6 1.333e-06 43.2 1.333e-06 21.6 1.333e-06H0V101.126Z" fill="white"/>
</svg>
